<?xml version="1.0" encoding="UTF-8" standalone="no"?>
<!DOCTYPE svg PUBLIC "-//W3C//DTD SVG 1.1//EN"
 "http://www.w3.org/Graphics/SVG/1.1/DTD/svg11.dtd">
<!-- Generated by graphviz version 5.0.0 (20220707.1540)
 -->
<!-- Title: dependencies Pages: 1 -->
<svg width="518pt" height="174pt"
 viewBox="0.00 0.00 518.00 173.80" xmlns="http://www.w3.org/2000/svg" xmlns:xlink="http://www.w3.org/1999/xlink">
<g id="graph0" class="graph" transform="scale(1 1) rotate(0) translate(4 169.8)">
<title>dependencies</title>
<polygon fill="white" stroke="transparent" points="-4,4 -4,-169.8 514,-169.8 514,4 -4,4"/>
<text text-anchor="middle" x="255" y="-8.2" font-family="sans-serif" font-size="14.00">dependencies</text>
<g id="clust1" class="cluster">
<title>cluster_AddCourseModule</title>
<polygon fill="none" stroke="black" stroke-dasharray="1,5" points="8,-32.8 8,-157.8 502,-157.8 502,-32.8 8,-32.8"/>
</g>
<g id="clust2" class="cluster">
<title>cluster_AddCourseModule_declarations</title>
<polygon fill="none" stroke="black" points="332,-40.8 332,-92.8 494,-92.8 494,-40.8 332,-40.8"/>
</g>
<g id="clust7" class="cluster">
<title>cluster_AddCourseModule_providers</title>
<polygon fill="none" stroke="black" points="144,-40.8 144,-92.8 324,-92.8 324,-40.8 144,-40.8"/>
</g>
<g id="clust4" class="cluster">
<title>cluster_AddCourseModule_imports</title>
<polygon fill="none" stroke="black" points="16,-40.8 16,-92.8 136,-92.8 136,-40.8 16,-40.8"/>
</g>
<!-- AddCourseComponent -->
<g id="node1" class="node">
<title>AddCourseComponent</title>
<polygon fill="#ffffb3" stroke="black" points="485.6,-84.8 340.4,-84.8 340.4,-48.8 485.6,-48.8 485.6,-84.8"/>
<text text-anchor="middle" x="413" y="-62.6" font-family="Times,serif" font-size="14.00">AddCourseComponent</text>
</g>
<!-- AddCourseModule -->
<g id="node2" class="node">
<title>AddCourseModule</title>
<polygon fill="#8dd3c7" stroke="black" points="295.82,-149.8 292.82,-153.8 271.82,-153.8 268.82,-149.8 172.18,-149.8 172.18,-113.8 295.82,-113.8 295.82,-149.8"/>
<text text-anchor="middle" x="234" y="-127.6" font-family="Times,serif" font-size="14.00">AddCourseModule</text>
</g>
<!-- AddCourseComponent&#45;&gt;AddCourseModule -->
<g id="edge1" class="edge">
<title>AddCourseComponent&#45;&gt;AddCourseModule</title>
<path fill="none" stroke="black" d="M413,-84.91C413,-104.14 413,-131.8 413,-131.8 413,-131.8 305.85,-131.8 305.85,-131.8"/>
<polygon fill="black" stroke="black" points="305.85,-128.3 295.85,-131.8 305.85,-135.3 305.85,-128.3"/>
</g>
<!-- SpinnerModule -->
<g id="node3" class="node">
<title>SpinnerModule</title>
<polygon fill="#8dd3c7" stroke="black" points="127.6,-84.8 124.6,-88.8 103.6,-88.8 100.6,-84.8 24.4,-84.8 24.4,-48.8 127.6,-48.8 127.6,-84.8"/>
<text text-anchor="middle" x="76" y="-62.6" font-family="Times,serif" font-size="14.00">SpinnerModule</text>
</g>
<!-- SpinnerModule&#45;&gt;AddCourseModule -->
<g id="edge2" class="edge">
<title>SpinnerModule&#45;&gt;AddCourseModule</title>
<path fill="none" stroke="black" d="M76,-84.91C76,-104.14 76,-131.8 76,-131.8 76,-131.8 162.01,-131.8 162.01,-131.8"/>
<polygon fill="black" stroke="black" points="162.01,-135.3 172.01,-131.8 162.01,-128.3 162.01,-135.3"/>
</g>
<!-- CourseApiService -->
<g id="node4" class="node">
<title>CourseApiService</title>
<ellipse fill="#fdb462" stroke="black" cx="234" cy="-66.8" rx="81.67" ry="18"/>
<text text-anchor="middle" x="234" y="-62.6" font-family="Times,serif" font-size="14.00">CourseApiService</text>
</g>
<!-- CourseApiService&#45;&gt;AddCourseModule -->
<g id="edge3" class="edge">
<title>CourseApiService&#45;&gt;AddCourseModule</title>
<path fill="none" stroke="black" d="M234,-84.91C234,-84.91 234,-103.79 234,-103.79"/>
<polygon fill="black" stroke="black" points="230.5,-103.79 234,-113.79 237.5,-103.79 230.5,-103.79"/>
</g>
</g>
</svg>
