<?xml version="1.0" encoding="UTF-8" standalone="no"?>
<!DOCTYPE svg PUBLIC "-//W3C//DTD SVG 1.1//EN"
 "http://www.w3.org/Graphics/SVG/1.1/DTD/svg11.dtd">
<!-- Generated by graphviz version 5.0.0 (20220707.1540)
 -->
<!-- Title: dependencies Pages: 1 -->
<svg width="706pt" height="174pt"
 viewBox="0.00 0.00 706.00 173.80" xmlns="http://www.w3.org/2000/svg" xmlns:xlink="http://www.w3.org/1999/xlink">
<g id="graph0" class="graph" transform="scale(1 1) rotate(0) translate(4 169.8)">
<title>dependencies</title>
<polygon fill="white" stroke="transparent" points="-4,4 -4,-169.8 702,-169.8 702,4 -4,4"/>
<text text-anchor="middle" x="349" y="-8.2" font-family="sans-serif" font-size="14.00">dependencies</text>
<g id="clust1" class="cluster">
<title>cluster_ValidateTokenModule</title>
<polygon fill="none" stroke="black" stroke-dasharray="1,5" points="8,-32.8 8,-157.8 690,-157.8 690,-32.8 8,-32.8"/>
</g>
<g id="clust5" class="cluster">
<title>cluster_ValidateTokenModule_imports</title>
<polygon fill="none" stroke="black" points="562,-40.8 562,-92.8 682,-92.8 682,-40.8 562,-40.8"/>
</g>
<g id="clust8" class="cluster">
<title>cluster_ValidateTokenModule_providers</title>
<polygon fill="none" stroke="black" points="388,-40.8 388,-92.8 554,-92.8 554,-40.8 388,-40.8"/>
</g>
<g id="clust2" class="cluster">
<title>cluster_ValidateTokenModule_declarations</title>
<polygon fill="none" stroke="black" points="16,-40.8 16,-92.8 380,-92.8 380,-40.8 16,-40.8"/>
</g>
<!-- ResetPasswordComponent -->
<g id="node1" class="node">
<title>ResetPasswordComponent</title>
<polygon fill="#ffffb3" stroke="black" points="372.1,-84.8 205.9,-84.8 205.9,-48.8 372.1,-48.8 372.1,-84.8"/>
<text text-anchor="middle" x="289" y="-62.6" font-family="Times,serif" font-size="14.00">ResetPasswordComponent</text>
</g>
<!-- ValidateTokenModule -->
<g id="node3" class="node">
<title>ValidateTokenModule</title>
<polygon fill="#8dd3c7" stroke="black" points="451.24,-149.8 448.24,-153.8 427.24,-153.8 424.24,-149.8 308.76,-149.8 308.76,-113.8 451.24,-113.8 451.24,-149.8"/>
<text text-anchor="middle" x="380" y="-127.6" font-family="Times,serif" font-size="14.00">ValidateTokenModule</text>
</g>
<!-- ResetPasswordComponent&#45;&gt;ValidateTokenModule -->
<g id="edge1" class="edge">
<title>ResetPasswordComponent&#45;&gt;ValidateTokenModule</title>
<path fill="none" stroke="black" d="M340.34,-84.91C340.34,-84.91 340.34,-103.79 340.34,-103.79"/>
<polygon fill="black" stroke="black" points="336.84,-103.79 340.34,-113.79 343.84,-103.79 336.84,-103.79"/>
</g>
<!-- ValidateTokenComponent -->
<g id="node2" class="node">
<title>ValidateTokenComponent</title>
<polygon fill="#ffffb3" stroke="black" points="188.02,-84.8 23.98,-84.8 23.98,-48.8 188.02,-48.8 188.02,-84.8"/>
<text text-anchor="middle" x="106" y="-62.6" font-family="Times,serif" font-size="14.00">ValidateTokenComponent</text>
</g>
<!-- ValidateTokenComponent&#45;&gt;ValidateTokenModule -->
<g id="edge2" class="edge">
<title>ValidateTokenComponent&#45;&gt;ValidateTokenModule</title>
<path fill="none" stroke="black" d="M106,-84.91C106,-104.14 106,-131.8 106,-131.8 106,-131.8 298.72,-131.8 298.72,-131.8"/>
<polygon fill="black" stroke="black" points="298.73,-135.3 308.72,-131.8 298.72,-128.3 298.73,-135.3"/>
</g>
<!-- SpinnerModule -->
<g id="node4" class="node">
<title>SpinnerModule</title>
<polygon fill="#8dd3c7" stroke="black" points="673.6,-84.8 670.6,-88.8 649.6,-88.8 646.6,-84.8 570.4,-84.8 570.4,-48.8 673.6,-48.8 673.6,-84.8"/>
<text text-anchor="middle" x="622" y="-62.6" font-family="Times,serif" font-size="14.00">SpinnerModule</text>
</g>
<!-- SpinnerModule&#45;&gt;ValidateTokenModule -->
<g id="edge3" class="edge">
<title>SpinnerModule&#45;&gt;ValidateTokenModule</title>
<path fill="none" stroke="black" d="M622,-84.91C622,-104.14 622,-131.8 622,-131.8 622,-131.8 461.3,-131.8 461.3,-131.8"/>
<polygon fill="black" stroke="black" points="461.3,-128.3 451.3,-131.8 461.3,-135.3 461.3,-128.3"/>
</g>
<!-- AuthAPIService -->
<g id="node5" class="node">
<title>AuthAPIService</title>
<ellipse fill="#fdb462" stroke="black" cx="471" cy="-66.8" rx="74.74" ry="18"/>
<text text-anchor="middle" x="471" y="-62.6" font-family="Times,serif" font-size="14.00">AuthAPIService</text>
</g>
<!-- AuthAPIService&#45;&gt;ValidateTokenModule -->
<g id="edge4" class="edge">
<title>AuthAPIService&#45;&gt;ValidateTokenModule</title>
<path fill="none" stroke="black" d="M423.75,-80.9C423.75,-80.9 423.75,-103.52 423.75,-103.52"/>
<polygon fill="black" stroke="black" points="420.25,-103.52 423.75,-113.52 427.25,-103.52 420.25,-103.52"/>
</g>
</g>
</svg>
