<?xml version="1.0" encoding="UTF-8" standalone="no"?>
<!DOCTYPE svg PUBLIC "-//W3C//DTD SVG 1.1//EN"
 "http://www.w3.org/Graphics/SVG/1.1/DTD/svg11.dtd">
<!-- Generated by graphviz version 5.0.0 (20220707.1540)
 -->
<!-- Title: dependencies Pages: 1 -->
<svg width="3468pt" height="253pt"
 viewBox="0.00 0.00 3468.00 252.80" xmlns="http://www.w3.org/2000/svg" xmlns:xlink="http://www.w3.org/1999/xlink">
<g id="graph0" class="graph" transform="scale(1 1) rotate(0) translate(4 248.8)">
<title>dependencies</title>
<polygon fill="white" stroke="transparent" points="-4,4 -4,-248.8 3464,-248.8 3464,4 -4,4"/>
<text text-anchor="middle" x="1730" y="-8.2" font-family="sans-serif" font-size="14.00">dependencies</text>
<g id="clust1" class="cluster">
<title>cluster_AdminModule</title>
<polygon fill="none" stroke="black" stroke-dasharray="1,5" points="304,-32.8 304,-160.8 850,-160.8 850,-32.8 304,-32.8"/>
</g>
<g id="clust2" class="cluster">
<title>cluster_AdminModule_declarations</title>
<polygon fill="none" stroke="black" points="428,-40.8 428,-92.8 704,-92.8 704,-40.8 428,-40.8"/>
</g>
<g id="clust5" class="cluster">
<title>cluster_AdminModule_imports</title>
<polygon fill="none" stroke="black" points="312,-40.8 312,-92.8 420,-92.8 420,-40.8 312,-40.8"/>
</g>
<g id="clust8" class="cluster">
<title>cluster_AdminModule_providers</title>
<polygon fill="none" stroke="black" points="712,-40.8 712,-92.8 842,-92.8 842,-40.8 712,-40.8"/>
</g>
<g id="clust9" class="cluster">
<title>cluster_AppModule</title>
<polygon fill="none" stroke="black" stroke-dasharray="1,5" points="858,-32.8 858,-236.8 1118,-236.8 1118,-32.8 858,-32.8"/>
</g>
<g id="clust12" class="cluster">
<title>cluster_AppModule_imports</title>
<polygon fill="none" stroke="black" points="996,-40.8 996,-92.8 1110,-92.8 1110,-40.8 996,-40.8"/>
</g>
<g id="clust14" class="cluster">
<title>cluster_AppModule_bootstrap</title>
<polygon fill="none" stroke="black" points="866,-176.8 866,-228.8 990,-228.8 990,-176.8 866,-176.8"/>
</g>
<g id="clust10" class="cluster">
<title>cluster_AppModule_declarations</title>
<polygon fill="none" stroke="black" points="866,-40.8 866,-92.8 988,-92.8 988,-40.8 866,-40.8"/>
</g>
<g id="clust37" class="cluster">
<title>cluster_NotFoundModule</title>
<polygon fill="none" stroke="black" stroke-dasharray="1,5" points="3278,-32.8 3278,-236.8 3452,-236.8 3452,-32.8 3278,-32.8"/>
</g>
<g id="clust38" class="cluster">
<title>cluster_NotFoundModule_declarations</title>
<polygon fill="none" stroke="black" points="3288,-40.8 3288,-92.8 3442,-92.8 3442,-40.8 3288,-40.8"/>
</g>
<g id="clust41" class="cluster">
<title>cluster_NotFoundModule_exports</title>
<polygon fill="none" stroke="black" points="3286,-176.8 3286,-228.8 3444,-228.8 3444,-176.8 3286,-176.8"/>
</g>
<g id="clust50" class="cluster">
<title>cluster_SendTokenModule</title>
<polygon fill="none" stroke="black" stroke-dasharray="1,5" points="2248,-32.8 2248,-160.8 2728,-160.8 2728,-32.8 2248,-32.8"/>
</g>
<g id="clust51" class="cluster">
<title>cluster_SendTokenModule_declarations</title>
<polygon fill="none" stroke="black" points="2384,-40.8 2384,-92.8 2546,-92.8 2546,-40.8 2384,-40.8"/>
</g>
<g id="clust53" class="cluster">
<title>cluster_SendTokenModule_imports</title>
<polygon fill="none" stroke="black" points="2256,-40.8 2256,-92.8 2376,-92.8 2376,-40.8 2256,-40.8"/>
</g>
<g id="clust56" class="cluster">
<title>cluster_SendTokenModule_providers</title>
<polygon fill="none" stroke="black" points="2554,-40.8 2554,-92.8 2720,-92.8 2720,-40.8 2554,-40.8"/>
</g>
<g id="clust57" class="cluster">
<title>cluster_SpinnerModule</title>
<polygon fill="none" stroke="black" stroke-dasharray="1,5" points="1932,-100.8 1932,-168.8 2240,-168.8 2240,-100.8 1932,-100.8"/>
</g>
<g id="clust58" class="cluster">
<title>cluster_SpinnerModule_declarations</title>
<polygon fill="none" stroke="black" points="2092,-108.8 2092,-160.8 2232,-160.8 2232,-108.8 2092,-108.8"/>
</g>
<g id="clust61" class="cluster">
<title>cluster_SpinnerModule_exports</title>
<polygon fill="none" stroke="black" points="1940,-108.8 1940,-160.8 2084,-160.8 2084,-108.8 1940,-108.8"/>
</g>
<g id="clust16" class="cluster">
<title>cluster_ClockModule</title>
<polygon fill="none" stroke="black" stroke-dasharray="1,5" points="8,-100.8 8,-168.8 296,-168.8 296,-100.8 8,-100.8"/>
</g>
<g id="clust17" class="cluster">
<title>cluster_ClockModule_declarations</title>
<polygon fill="none" stroke="black" points="158,-108.8 158,-160.8 288,-160.8 288,-108.8 158,-108.8"/>
</g>
<g id="clust20" class="cluster">
<title>cluster_ClockModule_exports</title>
<polygon fill="none" stroke="black" points="16,-108.8 16,-160.8 150,-160.8 150,-108.8 16,-108.8"/>
</g>
<g id="clust23" class="cluster">
<title>cluster_HomeModule</title>
<polygon fill="none" stroke="black" stroke-dasharray="1,5" points="1126,-32.8 1126,-160.8 1600,-160.8 1600,-32.8 1126,-32.8"/>
</g>
<g id="clust29" class="cluster">
<title>cluster_HomeModule_providers</title>
<polygon fill="none" stroke="black" points="1274,-40.8 1274,-92.8 1592,-92.8 1592,-40.8 1274,-40.8"/>
</g>
<g id="clust24" class="cluster">
<title>cluster_HomeModule_declarations</title>
<polygon fill="none" stroke="black" points="1134,-40.8 1134,-92.8 1266,-92.8 1266,-40.8 1134,-40.8"/>
</g>
<g id="clust30" class="cluster">
<title>cluster_LoginModule</title>
<polygon fill="none" stroke="black" stroke-dasharray="1,5" points="2736,-32.8 2736,-160.8 2882,-160.8 2882,-32.8 2736,-32.8"/>
</g>
<g id="clust31" class="cluster">
<title>cluster_LoginModule_declarations</title>
<polygon fill="none" stroke="black" points="2744,-40.8 2744,-92.8 2874,-92.8 2874,-40.8 2744,-40.8"/>
</g>
<g id="clust64" class="cluster">
<title>cluster_UsersModule</title>
<polygon fill="none" stroke="black" stroke-dasharray="1,5" points="1608,-32.8 1608,-160.8 1924,-160.8 1924,-32.8 1608,-32.8"/>
</g>
<g id="clust65" class="cluster">
<title>cluster_UsersModule_declarations</title>
<polygon fill="none" stroke="black" points="1786,-40.8 1786,-92.8 1916,-92.8 1916,-40.8 1786,-40.8"/>
</g>
<g id="clust70" class="cluster">
<title>cluster_UsersModule_providers</title>
<polygon fill="none" stroke="black" points="1616,-40.8 1616,-92.8 1778,-92.8 1778,-40.8 1616,-40.8"/>
</g>
<g id="clust71" class="cluster">
<title>cluster_ValidateTokenModule</title>
<polygon fill="none" stroke="black" stroke-dasharray="1,5" points="2890,-32.8 2890,-160.8 3270,-160.8 3270,-32.8 2890,-32.8"/>
</g>
<g id="clust72" class="cluster">
<title>cluster_ValidateTokenModule_declarations</title>
<polygon fill="none" stroke="black" points="2898,-40.8 2898,-92.8 3262,-92.8 3262,-40.8 2898,-40.8"/>
</g>
<!-- AdminComponent -->
<g id="node1" class="node">
<title>AdminComponent</title>
<polygon fill="#ffffb3" stroke="black" points="696.22,-84.8 575.78,-84.8 575.78,-48.8 696.22,-48.8 696.22,-84.8"/>
<text text-anchor="middle" x="636" y="-62.6" font-family="Times,serif" font-size="14.00">AdminComponent</text>
</g>
<!-- AdminModule -->
<g id="node3" class="node">
<title>AdminModule</title>
<polygon fill="#8dd3c7" stroke="black" points="615.44,-152.8 612.44,-156.8 591.44,-156.8 588.44,-152.8 516.56,-152.8 516.56,-116.8 615.44,-116.8 615.44,-152.8"/>
<text text-anchor="middle" x="566" y="-130.6" font-family="Times,serif" font-size="14.00">AdminModule</text>
</g>
<!-- AdminComponent&#45;&gt;AdminModule -->
<g id="edge1" class="edge">
<title>AdminComponent&#45;&gt;AdminModule</title>
<path fill="none" stroke="black" d="M595.56,-85.02C595.56,-85.02 595.56,-106.53 595.56,-106.53"/>
<polygon fill="black" stroke="black" points="592.06,-106.53 595.56,-116.53 599.06,-106.53 592.06,-106.53"/>
</g>
<!-- HeaderComponent -->
<g id="node2" class="node">
<title>HeaderComponent</title>
<polygon fill="#ffffb3" stroke="black" points="557.75,-84.8 436.25,-84.8 436.25,-48.8 557.75,-48.8 557.75,-84.8"/>
<text text-anchor="middle" x="497" y="-62.6" font-family="Times,serif" font-size="14.00">HeaderComponent</text>
</g>
<!-- HeaderComponent&#45;&gt;AdminModule -->
<g id="edge2" class="edge">
<title>HeaderComponent&#45;&gt;AdminModule</title>
<path fill="none" stroke="black" d="M537.33,-85.02C537.33,-85.02 537.33,-106.53 537.33,-106.53"/>
<polygon fill="black" stroke="black" points="533.83,-106.53 537.33,-116.53 540.83,-106.53 533.83,-106.53"/>
</g>
<!-- ClockModule -->
<g id="node4" class="node">
<title>ClockModule</title>
<polygon fill="#8dd3c7" stroke="black" points="412.49,-84.8 409.49,-88.8 388.49,-88.8 385.49,-84.8 319.51,-84.8 319.51,-48.8 412.49,-48.8 412.49,-84.8"/>
<text text-anchor="middle" x="366" y="-62.6" font-family="Times,serif" font-size="14.00">ClockModule</text>
</g>
<!-- ClockModule&#45;&gt;AdminModule -->
<g id="edge3" class="edge">
<title>ClockModule&#45;&gt;AdminModule</title>
<path fill="none" stroke="black" d="M381.5,-85.07C381.5,-103.36 381.5,-128.8 381.5,-128.8 381.5,-128.8 506.56,-128.8 506.56,-128.8"/>
<polygon fill="black" stroke="black" points="506.56,-132.3 516.56,-128.8 506.56,-125.3 506.56,-132.3"/>
</g>
<!-- ClockComponent  -->
<g id="node11" class="node">
<title>ClockComponent </title>
<polygon fill="#fb8072" stroke="black" points="142.27,-152.8 23.73,-152.8 23.73,-116.8 142.27,-116.8 142.27,-152.8"/>
<text text-anchor="middle" x="83" y="-130.6" font-family="Times,serif" font-size="14.00">ClockComponent </text>
</g>
<!-- ClockModule&#45;&gt;ClockComponent  -->
<g id="edge10" class="edge">
<title>ClockModule&#45;&gt;ClockComponent </title>
<path fill="none" stroke="black" stroke-dasharray="5,2" d="M319.27,-66.8C238.89,-66.8 83,-66.8 83,-66.8 83,-66.8 83,-106.58 83,-106.58"/>
<polygon fill="black" stroke="black" points="79.5,-106.58 83,-116.58 86.5,-106.58 79.5,-106.58"/>
</g>
<!-- AppService -->
<g id="node5" class="node">
<title>AppService</title>
<ellipse fill="#fdb462" stroke="black" cx="777" cy="-66.8" rx="56.75" ry="18"/>
<text text-anchor="middle" x="777" y="-62.6" font-family="Times,serif" font-size="14.00">AppService</text>
</g>
<!-- AppService&#45;&gt;AdminModule -->
<g id="edge4" class="edge">
<title>AppService&#45;&gt;AdminModule</title>
<path fill="none" stroke="black" d="M788.32,-84.73C788.32,-103.04 788.32,-128.8 788.32,-128.8 788.32,-128.8 625.34,-128.8 625.34,-128.8"/>
<polygon fill="black" stroke="black" points="625.34,-125.3 615.34,-128.8 625.34,-132.3 625.34,-125.3"/>
</g>
<!-- AppModule -->
<g id="node7" class="node">
<title>AppModule</title>
<polygon fill="#8dd3c7" stroke="black" points="968.66,-152.8 965.66,-156.8 944.66,-156.8 941.66,-152.8 885.34,-152.8 885.34,-116.8 968.66,-116.8 968.66,-152.8"/>
<text text-anchor="middle" x="927" y="-130.6" font-family="Times,serif" font-size="14.00">AppModule</text>
</g>
<!-- AppService&#45;&gt;AppModule -->
<g id="edge8" class="edge">
<title>AppService&#45;&gt;AppModule</title>
<path fill="none" stroke="black" d="M810.97,-81.42C810.97,-102.99 810.97,-140.8 810.97,-140.8 810.97,-140.8 875.11,-140.8 875.11,-140.8"/>
<polygon fill="black" stroke="black" points="875.11,-144.3 885.11,-140.8 875.11,-137.3 875.11,-144.3"/>
</g>
<!-- HomeModule -->
<g id="node13" class="node">
<title>HomeModule</title>
<polygon fill="#8dd3c7" stroke="black" points="1392.77,-152.8 1389.77,-156.8 1368.77,-156.8 1365.77,-152.8 1299.23,-152.8 1299.23,-116.8 1392.77,-116.8 1392.77,-152.8"/>
<text text-anchor="middle" x="1346" y="-130.6" font-family="Times,serif" font-size="14.00">HomeModule</text>
</g>
<!-- AppService&#45;&gt;HomeModule -->
<g id="edge13" class="edge">
<title>AppService&#45;&gt;HomeModule</title>
<path fill="none" stroke="black" d="M743.03,-81.3C743.03,-89.77 743.03,-98.8 743.03,-98.8 743.03,-98.8 1322.56,-98.8 1322.56,-98.8 1322.56,-98.8 1322.56,-106.38 1322.56,-106.38"/>
<polygon fill="black" stroke="black" points="1319.06,-106.38 1322.56,-116.38 1326.06,-106.38 1319.06,-106.38"/>
</g>
<!-- UsersModule -->
<g id="node28" class="node">
<title>UsersModule</title>
<polygon fill="#8dd3c7" stroke="black" points="1819.94,-152.8 1816.94,-156.8 1795.94,-156.8 1792.94,-152.8 1728.06,-152.8 1728.06,-116.8 1819.94,-116.8 1819.94,-152.8"/>
<text text-anchor="middle" x="1774" y="-130.6" font-family="Times,serif" font-size="14.00">UsersModule</text>
</g>
<!-- AppService&#45;&gt;UsersModule -->
<g id="edge28" class="edge">
<title>AppService&#45;&gt;UsersModule</title>
<path fill="none" stroke="black" d="M765.68,-84.47C765.68,-87.55 765.68,-89.8 765.68,-89.8 765.68,-89.8 1742.09,-89.8 1742.09,-89.8 1742.09,-89.8 1742.09,-106.76 1742.09,-106.76"/>
<polygon fill="black" stroke="black" points="1738.59,-106.76 1742.09,-116.76 1745.59,-106.76 1738.59,-106.76"/>
</g>
<!-- AppComponent -->
<g id="node6" class="node">
<title>AppComponent</title>
<polygon fill="#ffffb3" stroke="black" points="979.94,-84.8 874.06,-84.8 874.06,-48.8 979.94,-48.8 979.94,-84.8"/>
<text text-anchor="middle" x="927" y="-62.6" font-family="Times,serif" font-size="14.00">AppComponent</text>
</g>
<!-- AppComponent&#45;&gt;AppModule -->
<g id="edge5" class="edge">
<title>AppComponent&#45;&gt;AppModule</title>
<path fill="none" stroke="black" d="M927,-85.02C927,-85.02 927,-106.53 927,-106.53"/>
<polygon fill="black" stroke="black" points="923.5,-106.53 927,-116.53 930.5,-106.53 923.5,-106.53"/>
</g>
<!-- AppComponent  -->
<g id="node9" class="node">
<title>AppComponent </title>
<polygon fill="#80b1d3" stroke="black" points="982.44,-220.8 873.56,-220.8 873.56,-184.8 982.44,-184.8 982.44,-220.8"/>
<text text-anchor="middle" x="928" y="-198.6" font-family="Times,serif" font-size="14.00">AppComponent </text>
</g>
<!-- AppModule&#45;&gt;AppComponent  -->
<g id="edge7" class="edge">
<title>AppModule&#45;&gt;AppComponent </title>
<path fill="none" stroke="black" stroke-dasharray="1,5" d="M927,-153.02C927,-153.02 927,-174.53 927,-174.53"/>
<polygon fill="black" stroke="black" points="923.5,-174.53 927,-184.53 930.5,-174.53 923.5,-174.53"/>
</g>
<!-- RoutesModule -->
<g id="node8" class="node">
<title>RoutesModule</title>
<polygon fill="#8dd3c7" stroke="black" points="1102.44,-84.8 1099.44,-88.8 1078.44,-88.8 1075.44,-84.8 1003.56,-84.8 1003.56,-48.8 1102.44,-48.8 1102.44,-84.8"/>
<text text-anchor="middle" x="1053" y="-62.6" font-family="Times,serif" font-size="14.00">RoutesModule</text>
</g>
<!-- RoutesModule&#45;&gt;AppModule -->
<g id="edge6" class="edge">
<title>RoutesModule&#45;&gt;AppModule</title>
<path fill="none" stroke="black" d="M1053,-85.09C1053,-107.01 1053,-140.8 1053,-140.8 1053,-140.8 978.96,-140.8 978.96,-140.8"/>
<polygon fill="black" stroke="black" points="978.96,-137.3 968.96,-140.8 978.96,-144.3 978.96,-137.3"/>
</g>
<!-- ClockComponent -->
<g id="node10" class="node">
<title>ClockComponent</title>
<polygon fill="#ffffb3" stroke="black" points="280.27,-152.8 165.73,-152.8 165.73,-116.8 280.27,-116.8 280.27,-152.8"/>
<text text-anchor="middle" x="223" y="-130.6" font-family="Times,serif" font-size="14.00">ClockComponent</text>
</g>
<!-- ClockComponent&#45;&gt;ClockModule -->
<g id="edge9" class="edge">
<title>ClockComponent&#45;&gt;ClockModule</title>
<path fill="none" stroke="black" d="M280.41,-140.8C314.25,-140.8 350.5,-140.8 350.5,-140.8 350.5,-140.8 350.5,-95.09 350.5,-95.09"/>
<polygon fill="black" stroke="black" points="354,-95.09 350.5,-85.09 347,-95.09 354,-95.09"/>
</g>
<!-- HomeComponent -->
<g id="node12" class="node">
<title>HomeComponent</title>
<polygon fill="#ffffb3" stroke="black" points="1257.55,-84.8 1142.45,-84.8 1142.45,-48.8 1257.55,-48.8 1257.55,-84.8"/>
<text text-anchor="middle" x="1200" y="-62.6" font-family="Times,serif" font-size="14.00">HomeComponent</text>
</g>
<!-- HomeComponent&#45;&gt;HomeModule -->
<g id="edge11" class="edge">
<title>HomeComponent&#45;&gt;HomeModule</title>
<path fill="none" stroke="black" d="M1200,-85.07C1200,-103.36 1200,-128.8 1200,-128.8 1200,-128.8 1289,-128.8 1289,-128.8"/>
<polygon fill="black" stroke="black" points="1289,-132.3 1299,-128.8 1289,-125.3 1289,-132.3"/>
</g>
<!-- SpinnerModule -->
<g id="node14" class="node">
<title>SpinnerModule</title>
<polygon fill="#8dd3c7" stroke="black" points="2367.6,-84.8 2364.6,-88.8 2343.6,-88.8 2340.6,-84.8 2264.4,-84.8 2264.4,-48.8 2367.6,-48.8 2367.6,-84.8"/>
<text text-anchor="middle" x="2316" y="-62.6" font-family="Times,serif" font-size="14.00">SpinnerModule</text>
</g>
<!-- SpinnerModule&#45;&gt;HomeModule -->
<g id="edge12" class="edge">
<title>SpinnerModule&#45;&gt;HomeModule</title>
<path fill="none" stroke="black" d="M2281.63,-85.01C2281.63,-90.35 2281.63,-94.8 2281.63,-94.8 2281.63,-94.8 1369.44,-94.8 1369.44,-94.8 1369.44,-94.8 1369.44,-106.67 1369.44,-106.67"/>
<polygon fill="black" stroke="black" points="1365.94,-106.67 1369.44,-116.67 1372.94,-106.67 1365.94,-106.67"/>
</g>
<!-- LoginModule -->
<g id="node18" class="node">
<title>LoginModule</title>
<polygon fill="#8dd3c7" stroke="black" points="2836.49,-152.8 2833.49,-156.8 2812.49,-156.8 2809.49,-152.8 2743.51,-152.8 2743.51,-116.8 2836.49,-116.8 2836.49,-152.8"/>
<text text-anchor="middle" x="2790" y="-130.6" font-family="Times,serif" font-size="14.00">LoginModule</text>
</g>
<!-- SpinnerModule&#45;&gt;LoginModule -->
<g id="edge17" class="edge">
<title>SpinnerModule&#45;&gt;LoginModule</title>
<path fill="none" stroke="black" d="M2298.82,-84.98C2298.82,-97.84 2298.82,-112.8 2298.82,-112.8 2298.82,-112.8 2746.21,-112.8 2746.21,-112.8 2746.21,-112.8 2746.21,-113.18 2746.21,-113.18"/>
<polygon fill="black" stroke="black" points="2742.71,-106.63 2746.21,-116.63 2749.71,-106.63 2742.71,-106.63"/>
</g>
<!-- SendTokenModule -->
<g id="node24" class="node">
<title>SendTokenModule</title>
<polygon fill="#8dd3c7" stroke="black" points="2526.82,-152.8 2523.82,-156.8 2502.82,-156.8 2499.82,-152.8 2403.18,-152.8 2403.18,-116.8 2526.82,-116.8 2526.82,-152.8"/>
<text text-anchor="middle" x="2465" y="-130.6" font-family="Times,serif" font-size="14.00">SendTokenModule</text>
</g>
<!-- SpinnerModule&#45;&gt;SendTokenModule -->
<g id="edge22" class="edge">
<title>SpinnerModule&#45;&gt;SendTokenModule</title>
<path fill="none" stroke="black" d="M2350.37,-85.09C2350.37,-107.01 2350.37,-140.8 2350.37,-140.8 2350.37,-140.8 2393.32,-140.8 2393.32,-140.8"/>
<polygon fill="black" stroke="black" points="2393.32,-144.3 2403.32,-140.8 2393.32,-137.3 2393.32,-144.3"/>
</g>
<!-- SpinnerComponent  -->
<g id="node26" class="node">
<title>SpinnerComponent </title>
<polygon fill="#fb8072" stroke="black" points="2076.38,-152.8 1947.62,-152.8 1947.62,-116.8 2076.38,-116.8 2076.38,-152.8"/>
<text text-anchor="middle" x="2012" y="-130.6" font-family="Times,serif" font-size="14.00">SpinnerComponent </text>
</g>
<!-- SpinnerModule&#45;&gt;SpinnerComponent  -->
<g id="edge25" class="edge">
<title>SpinnerModule&#45;&gt;SpinnerComponent </title>
<path fill="none" stroke="black" stroke-dasharray="5,2" d="M2264.43,-72.8C2177.7,-72.8 2012,-72.8 2012,-72.8 2012,-72.8 2012,-106.53 2012,-106.53"/>
<polygon fill="black" stroke="black" points="2008.5,-106.53 2012,-116.53 2015.5,-106.53 2008.5,-106.53"/>
</g>
<!-- SpinnerModule&#45;&gt;UsersModule -->
<g id="edge27" class="edge">
<title>SpinnerModule&#45;&gt;UsersModule</title>
<path fill="none" stroke="black" d="M2264.44,-60.8C2158.81,-60.8 1927.71,-60.8 1927.71,-60.8 1927.71,-60.8 1927.71,-134.8 1927.71,-134.8 1927.71,-134.8 1830.12,-134.8 1830.12,-134.8"/>
<polygon fill="black" stroke="black" points="1830.12,-131.3 1820.12,-134.8 1830.12,-138.3 1830.12,-131.3"/>
</g>
<!-- ValidateTokenModule -->
<g id="node32" class="node">
<title>ValidateTokenModule</title>
<polygon fill="#8dd3c7" stroke="black" points="3049.24,-152.8 3046.24,-156.8 3025.24,-156.8 3022.24,-152.8 2906.76,-152.8 2906.76,-116.8 3049.24,-116.8 3049.24,-152.8"/>
<text text-anchor="middle" x="2978" y="-130.6" font-family="Times,serif" font-size="14.00">ValidateTokenModule</text>
</g>
<!-- SpinnerModule&#45;&gt;ValidateTokenModule -->
<g id="edge32" class="edge">
<title>SpinnerModule&#45;&gt;ValidateTokenModule</title>
<path fill="none" stroke="black" d="M2316,-84.9C2316,-95.89 2316,-107.8 2316,-107.8 2316,-107.8 2942.32,-107.8 2942.32,-107.8 2942.32,-107.8 2942.32,-108.68 2942.32,-108.68"/>
<polygon fill="black" stroke="black" points="2938.82,-106.64 2942.32,-116.64 2945.82,-106.64 2938.82,-106.64"/>
</g>
<!-- HomeApiService -->
<g id="node15" class="node">
<title>HomeApiService</title>
<ellipse fill="#fdb462" stroke="black" cx="1506" cy="-66.8" rx="78.16" ry="18"/>
<text text-anchor="middle" x="1506" y="-62.6" font-family="Times,serif" font-size="14.00">HomeApiService</text>
</g>
<!-- HomeApiService&#45;&gt;HomeModule -->
<g id="edge14" class="edge">
<title>HomeApiService&#45;&gt;HomeModule</title>
<path fill="none" stroke="black" d="M1506,-85.02C1506,-105.17 1506,-134.8 1506,-134.8 1506,-134.8 1403.14,-134.8 1403.14,-134.8"/>
<polygon fill="black" stroke="black" points="1403.14,-131.3 1393.14,-134.8 1403.14,-138.3 1403.14,-131.3"/>
</g>
<!-- HomeService -->
<g id="node16" class="node">
<title>HomeService</title>
<ellipse fill="#fdb462" stroke="black" cx="1346" cy="-66.8" rx="63.69" ry="18"/>
<text text-anchor="middle" x="1346" y="-62.6" font-family="Times,serif" font-size="14.00">HomeService</text>
</g>
<!-- HomeService&#45;&gt;HomeModule -->
<g id="edge15" class="edge">
<title>HomeService&#45;&gt;HomeModule</title>
<path fill="none" stroke="black" d="M1346,-85.02C1346,-85.02 1346,-106.53 1346,-106.53"/>
<polygon fill="black" stroke="black" points="1342.5,-106.53 1346,-116.53 1349.5,-106.53 1342.5,-106.53"/>
</g>
<!-- LoginComponent -->
<g id="node17" class="node">
<title>LoginComponent</title>
<polygon fill="#ffffb3" stroke="black" points="2866.27,-84.8 2751.73,-84.8 2751.73,-48.8 2866.27,-48.8 2866.27,-84.8"/>
<text text-anchor="middle" x="2809" y="-62.6" font-family="Times,serif" font-size="14.00">LoginComponent</text>
</g>
<!-- LoginComponent&#45;&gt;LoginModule -->
<g id="edge16" class="edge">
<title>LoginComponent&#45;&gt;LoginModule</title>
<path fill="none" stroke="black" d="M2794.06,-85.02C2794.06,-85.02 2794.06,-106.53 2794.06,-106.53"/>
<polygon fill="black" stroke="black" points="2790.56,-106.53 2794.06,-116.53 2797.56,-106.53 2790.56,-106.53"/>
</g>
<!-- AuthAPIService -->
<g id="node19" class="node">
<title>AuthAPIService</title>
<ellipse fill="#fdb462" stroke="black" cx="2637" cy="-66.8" rx="74.74" ry="18"/>
<text text-anchor="middle" x="2637" y="-62.6" font-family="Times,serif" font-size="14.00">AuthAPIService</text>
</g>
<!-- AuthAPIService&#45;&gt;LoginModule -->
<g id="edge18" class="edge">
<title>AuthAPIService&#45;&gt;LoginModule</title>
<path fill="none" stroke="black" d="M2711.96,-66.8C2732.34,-66.8 2748.91,-66.8 2748.91,-66.8 2748.91,-66.8 2748.91,-106.58 2748.91,-106.58"/>
<polygon fill="black" stroke="black" points="2745.41,-106.58 2748.91,-116.58 2752.41,-106.58 2745.41,-106.58"/>
</g>
<!-- AuthAPIService&#45;&gt;SendTokenModule -->
<g id="edge23" class="edge">
<title>AuthAPIService&#45;&gt;SendTokenModule</title>
<path fill="none" stroke="black" d="M2661.96,-83.96C2661.96,-104.1 2661.96,-134.8 2661.96,-134.8 2661.96,-134.8 2536.78,-134.8 2536.78,-134.8"/>
<polygon fill="black" stroke="black" points="2536.78,-131.3 2526.78,-134.8 2536.78,-138.3 2536.78,-131.3"/>
</g>
<!-- AuthAPIService&#45;&gt;ValidateTokenModule -->
<g id="edge33" class="edge">
<title>AuthAPIService&#45;&gt;ValidateTokenModule</title>
<path fill="none" stroke="black" d="M2612.04,-84C2612.04,-93.66 2612.04,-103.8 2612.04,-103.8 2612.04,-103.8 2978,-103.8 2978,-103.8 2978,-103.8 2978,-106.77 2978,-106.77"/>
<polygon fill="black" stroke="black" points="2974.5,-106.77 2978,-116.77 2981.5,-106.77 2974.5,-106.77"/>
</g>
<!-- NotFoundComponent -->
<g id="node20" class="node">
<title>NotFoundComponent</title>
<polygon fill="#ffffb3" stroke="black" points="3434.12,-84.8 3295.88,-84.8 3295.88,-48.8 3434.12,-48.8 3434.12,-84.8"/>
<text text-anchor="middle" x="3365" y="-62.6" font-family="Times,serif" font-size="14.00">NotFoundComponent</text>
</g>
<!-- NotFoundModule -->
<g id="node21" class="node">
<title>NotFoundModule</title>
<polygon fill="#8dd3c7" stroke="black" points="3423.34,-152.8 3420.34,-156.8 3399.34,-156.8 3396.34,-152.8 3306.66,-152.8 3306.66,-116.8 3423.34,-116.8 3423.34,-152.8"/>
<text text-anchor="middle" x="3365" y="-130.6" font-family="Times,serif" font-size="14.00">NotFoundModule</text>
</g>
<!-- NotFoundComponent&#45;&gt;NotFoundModule -->
<g id="edge19" class="edge">
<title>NotFoundComponent&#45;&gt;NotFoundModule</title>
<path fill="none" stroke="black" d="M3365,-85.02C3365,-85.02 3365,-106.53 3365,-106.53"/>
<polygon fill="black" stroke="black" points="3361.5,-106.53 3365,-116.53 3368.5,-106.53 3361.5,-106.53"/>
</g>
<!-- NotFoundComponent  -->
<g id="node22" class="node">
<title>NotFoundComponent </title>
<polygon fill="#fb8072" stroke="black" points="3435.62,-220.8 3294.38,-220.8 3294.38,-184.8 3435.62,-184.8 3435.62,-220.8"/>
<text text-anchor="middle" x="3365" y="-198.6" font-family="Times,serif" font-size="14.00">NotFoundComponent </text>
</g>
<!-- NotFoundModule&#45;&gt;NotFoundComponent  -->
<g id="edge20" class="edge">
<title>NotFoundModule&#45;&gt;NotFoundComponent </title>
<path fill="none" stroke="black" stroke-dasharray="5,2" d="M3365,-153.02C3365,-153.02 3365,-174.53 3365,-174.53"/>
<polygon fill="black" stroke="black" points="3361.5,-174.53 3365,-184.53 3368.5,-174.53 3361.5,-174.53"/>
</g>
<!-- SendTokenComponent -->
<g id="node23" class="node">
<title>SendTokenComponent</title>
<polygon fill="#ffffb3" stroke="black" points="2537.6,-84.8 2392.4,-84.8 2392.4,-48.8 2537.6,-48.8 2537.6,-84.8"/>
<text text-anchor="middle" x="2465" y="-62.6" font-family="Times,serif" font-size="14.00">SendTokenComponent</text>
</g>
<!-- SendTokenComponent&#45;&gt;SendTokenModule -->
<g id="edge21" class="edge">
<title>SendTokenComponent&#45;&gt;SendTokenModule</title>
<path fill="none" stroke="black" d="M2465,-85.02C2465,-85.02 2465,-106.53 2465,-106.53"/>
<polygon fill="black" stroke="black" points="2461.5,-106.53 2465,-116.53 2468.5,-106.53 2461.5,-106.53"/>
</g>
<!-- SpinnerComponent -->
<g id="node25" class="node">
<title>SpinnerComponent</title>
<polygon fill="#ffffb3" stroke="black" points="2224.38,-152.8 2099.62,-152.8 2099.62,-116.8 2224.38,-116.8 2224.38,-152.8"/>
<text text-anchor="middle" x="2162" y="-130.6" font-family="Times,serif" font-size="14.00">SpinnerComponent</text>
</g>
<!-- SpinnerComponent&#45;&gt;SpinnerModule -->
<g id="edge24" class="edge">
<title>SpinnerComponent&#45;&gt;SpinnerModule</title>
<path fill="none" stroke="black" d="M2224.77,-128.8C2273.63,-128.8 2333.18,-128.8 2333.18,-128.8 2333.18,-128.8 2333.18,-95.07 2333.18,-95.07"/>
<polygon fill="black" stroke="black" points="2336.68,-95.07 2333.18,-85.07 2329.68,-95.07 2336.68,-95.07"/>
</g>
<!-- UsersComponent -->
<g id="node27" class="node">
<title>UsersComponent</title>
<polygon fill="#ffffb3" stroke="black" points="1907.71,-84.8 1794.29,-84.8 1794.29,-48.8 1907.71,-48.8 1907.71,-84.8"/>
<text text-anchor="middle" x="1851" y="-62.6" font-family="Times,serif" font-size="14.00">UsersComponent</text>
</g>
<!-- UsersComponent&#45;&gt;UsersModule -->
<g id="edge26" class="edge">
<title>UsersComponent&#45;&gt;UsersModule</title>
<path fill="none" stroke="black" d="M1807.06,-85.02C1807.06,-85.02 1807.06,-106.53 1807.06,-106.53"/>
<polygon fill="black" stroke="black" points="1803.56,-106.53 1807.06,-116.53 1810.56,-106.53 1803.56,-106.53"/>
</g>
<!-- UserApiService -->
<g id="node29" class="node">
<title>UserApiService</title>
<ellipse fill="#fdb462" stroke="black" cx="1697" cy="-66.8" rx="72.93" ry="18"/>
<text text-anchor="middle" x="1697" y="-62.6" font-family="Times,serif" font-size="14.00">UserApiService</text>
</g>
<!-- UserApiService&#45;&gt;UsersModule -->
<g id="edge29" class="edge">
<title>UserApiService&#45;&gt;UsersModule</title>
<path fill="none" stroke="black" d="M1755.9,-77.43C1755.9,-77.43 1755.9,-106.58 1755.9,-106.58"/>
<polygon fill="black" stroke="black" points="1752.4,-106.58 1755.9,-116.58 1759.4,-106.58 1752.4,-106.58"/>
</g>
<!-- ResetPasswordComponent -->
<g id="node30" class="node">
<title>ResetPasswordComponent</title>
<polygon fill="#ffffb3" stroke="black" points="3254.1,-84.8 3087.9,-84.8 3087.9,-48.8 3254.1,-48.8 3254.1,-84.8"/>
<text text-anchor="middle" x="3171" y="-62.6" font-family="Times,serif" font-size="14.00">ResetPasswordComponent</text>
</g>
<!-- ResetPasswordComponent&#45;&gt;ValidateTokenModule -->
<g id="edge30" class="edge">
<title>ResetPasswordComponent&#45;&gt;ValidateTokenModule</title>
<path fill="none" stroke="black" d="M3171,-85.02C3171,-105.17 3171,-134.8 3171,-134.8 3171,-134.8 3059.32,-134.8 3059.32,-134.8"/>
<polygon fill="black" stroke="black" points="3059.32,-131.3 3049.32,-134.8 3059.32,-138.3 3059.32,-131.3"/>
</g>
<!-- ValidateTokenComponent -->
<g id="node31" class="node">
<title>ValidateTokenComponent</title>
<polygon fill="#ffffb3" stroke="black" points="3070.02,-84.8 2905.98,-84.8 2905.98,-48.8 3070.02,-48.8 3070.02,-84.8"/>
<text text-anchor="middle" x="2988" y="-62.6" font-family="Times,serif" font-size="14.00">ValidateTokenComponent</text>
</g>
<!-- ValidateTokenComponent&#45;&gt;ValidateTokenModule -->
<g id="edge31" class="edge">
<title>ValidateTokenComponent&#45;&gt;ValidateTokenModule</title>
<path fill="none" stroke="black" d="M3013.68,-85.02C3013.68,-85.02 3013.68,-106.53 3013.68,-106.53"/>
<polygon fill="black" stroke="black" points="3010.18,-106.53 3013.68,-116.53 3017.18,-106.53 3010.18,-106.53"/>
</g>
</g>
</svg>
