<?xml version="1.0" encoding="UTF-8" standalone="no"?>
<!DOCTYPE svg PUBLIC "-//W3C//DTD SVG 1.1//EN"
 "http://www.w3.org/Graphics/SVG/1.1/DTD/svg11.dtd">
<!-- Generated by graphviz version 5.0.0 (20220707.1540)
 -->
<!-- Title: dependencies Pages: 1 -->
<svg width="570pt" height="174pt"
 viewBox="0.00 0.00 570.00 173.80" xmlns="http://www.w3.org/2000/svg" xmlns:xlink="http://www.w3.org/1999/xlink">
<g id="graph0" class="graph" transform="scale(1 1) rotate(0) translate(4 169.8)">
<title>dependencies</title>
<polygon fill="white" stroke="transparent" points="-4,4 -4,-169.8 566,-169.8 566,4 -4,4"/>
<text text-anchor="middle" x="281" y="-8.2" font-family="sans-serif" font-size="14.00">dependencies</text>
<g id="clust1" class="cluster">
<title>cluster_AdminModule</title>
<polygon fill="none" stroke="black" stroke-dasharray="1,5" points="8,-32.8 8,-157.8 554,-157.8 554,-32.8 8,-32.8"/>
</g>
<g id="clust2" class="cluster">
<title>cluster_AdminModule_declarations</title>
<polygon fill="none" stroke="black" points="270,-40.8 270,-92.8 546,-92.8 546,-40.8 270,-40.8"/>
</g>
<g id="clust5" class="cluster">
<title>cluster_AdminModule_imports</title>
<polygon fill="none" stroke="black" points="154,-40.8 154,-92.8 262,-92.8 262,-40.8 154,-40.8"/>
</g>
<g id="clust8" class="cluster">
<title>cluster_AdminModule_providers</title>
<polygon fill="none" stroke="black" points="16,-40.8 16,-92.8 146,-92.8 146,-40.8 16,-40.8"/>
</g>
<!-- AdminComponent -->
<g id="node1" class="node">
<title>AdminComponent</title>
<polygon fill="#ffffb3" stroke="black" points="538.22,-84.8 417.78,-84.8 417.78,-48.8 538.22,-48.8 538.22,-84.8"/>
<text text-anchor="middle" x="478" y="-62.6" font-family="Times,serif" font-size="14.00">AdminComponent</text>
</g>
<!-- AdminModule -->
<g id="node3" class="node">
<title>AdminModule</title>
<polygon fill="#8dd3c7" stroke="black" points="322.44,-149.8 319.44,-153.8 298.44,-153.8 295.44,-149.8 223.56,-149.8 223.56,-113.8 322.44,-113.8 322.44,-149.8"/>
<text text-anchor="middle" x="273" y="-127.6" font-family="Times,serif" font-size="14.00">AdminModule</text>
</g>
<!-- AdminComponent&#45;&gt;AdminModule -->
<g id="edge1" class="edge">
<title>AdminComponent&#45;&gt;AdminModule</title>
<path fill="none" stroke="black" d="M478,-84.91C478,-104.14 478,-131.8 478,-131.8 478,-131.8 332.36,-131.8 332.36,-131.8"/>
<polygon fill="black" stroke="black" points="332.36,-128.3 322.36,-131.8 332.36,-135.3 332.36,-128.3"/>
</g>
<!-- HeaderComponent -->
<g id="node2" class="node">
<title>HeaderComponent</title>
<polygon fill="#ffffb3" stroke="black" points="399.75,-84.8 278.25,-84.8 278.25,-48.8 399.75,-48.8 399.75,-84.8"/>
<text text-anchor="middle" x="339" y="-62.6" font-family="Times,serif" font-size="14.00">HeaderComponent</text>
</g>
<!-- HeaderComponent&#45;&gt;AdminModule -->
<g id="edge2" class="edge">
<title>HeaderComponent&#45;&gt;AdminModule</title>
<path fill="none" stroke="black" d="M300.17,-84.91C300.17,-84.91 300.17,-103.79 300.17,-103.79"/>
<polygon fill="black" stroke="black" points="296.67,-103.79 300.17,-113.79 303.67,-103.79 296.67,-103.79"/>
</g>
<!-- ClockModule -->
<g id="node4" class="node">
<title>ClockModule</title>
<polygon fill="#8dd3c7" stroke="black" points="254.49,-84.8 251.49,-88.8 230.49,-88.8 227.49,-84.8 161.51,-84.8 161.51,-48.8 254.49,-48.8 254.49,-84.8"/>
<text text-anchor="middle" x="208" y="-62.6" font-family="Times,serif" font-size="14.00">ClockModule</text>
</g>
<!-- ClockModule&#45;&gt;AdminModule -->
<g id="edge3" class="edge">
<title>ClockModule&#45;&gt;AdminModule</title>
<path fill="none" stroke="black" d="M239.14,-84.91C239.14,-84.91 239.14,-103.79 239.14,-103.79"/>
<polygon fill="black" stroke="black" points="235.64,-103.79 239.14,-113.79 242.64,-103.79 235.64,-103.79"/>
</g>
<!-- AppService -->
<g id="node5" class="node">
<title>AppService</title>
<ellipse fill="#fdb462" stroke="black" cx="81" cy="-66.8" rx="56.75" ry="18"/>
<text text-anchor="middle" x="81" y="-62.6" font-family="Times,serif" font-size="14.00">AppService</text>
</g>
<!-- AppService&#45;&gt;AdminModule -->
<g id="edge4" class="edge">
<title>AppService&#45;&gt;AdminModule</title>
<path fill="none" stroke="black" d="M81,-84.91C81,-104.14 81,-131.8 81,-131.8 81,-131.8 213.56,-131.8 213.56,-131.8"/>
<polygon fill="black" stroke="black" points="213.56,-135.3 223.56,-131.8 213.56,-128.3 213.56,-135.3"/>
</g>
</g>
</svg>
