<?xml version="1.0" encoding="UTF-8" standalone="no"?>
<!DOCTYPE svg PUBLIC "-//W3C//DTD SVG 1.1//EN"
 "http://www.w3.org/Graphics/SVG/1.1/DTD/svg11.dtd">
<!-- Generated by graphviz version 5.0.0 (20220707.1540)
 -->
<!-- Title: dependencies Pages: 1 -->
<svg width="524pt" height="174pt"
 viewBox="0.00 0.00 524.00 173.80" xmlns="http://www.w3.org/2000/svg" xmlns:xlink="http://www.w3.org/1999/xlink">
<g id="graph0" class="graph" transform="scale(1 1) rotate(0) translate(4 169.8)">
<title>dependencies</title>
<polygon fill="white" stroke="transparent" points="-4,4 -4,-169.8 520,-169.8 520,4 -4,4"/>
<text text-anchor="middle" x="258" y="-8.2" font-family="sans-serif" font-size="14.00">dependencies</text>
<g id="clust1" class="cluster">
<title>cluster_AddStudentModule</title>
<polygon fill="none" stroke="black" stroke-dasharray="1,5" points="8,-32.8 8,-157.8 508,-157.8 508,-32.8 8,-32.8"/>
</g>
<g id="clust7" class="cluster">
<title>cluster_AddStudentModule_providers</title>
<polygon fill="none" stroke="black" points="316,-40.8 316,-92.8 500,-92.8 500,-40.8 316,-40.8"/>
</g>
<g id="clust2" class="cluster">
<title>cluster_AddStudentModule_declarations</title>
<polygon fill="none" stroke="black" points="144,-40.8 144,-92.8 308,-92.8 308,-40.8 144,-40.8"/>
</g>
<g id="clust4" class="cluster">
<title>cluster_AddStudentModule_imports</title>
<polygon fill="none" stroke="black" points="16,-40.8 16,-92.8 136,-92.8 136,-40.8 16,-40.8"/>
</g>
<!-- AddStudentComponent -->
<g id="node1" class="node">
<title>AddStudentComponent</title>
<polygon fill="#ffffb3" stroke="black" points="300.22,-84.8 151.78,-84.8 151.78,-48.8 300.22,-48.8 300.22,-84.8"/>
<text text-anchor="middle" x="226" y="-62.6" font-family="Times,serif" font-size="14.00">AddStudentComponent</text>
</g>
<!-- AddStudentModule -->
<g id="node2" class="node">
<title>AddStudentModule</title>
<polygon fill="#8dd3c7" stroke="black" points="289.44,-149.8 286.44,-153.8 265.44,-153.8 262.44,-149.8 162.56,-149.8 162.56,-113.8 289.44,-113.8 289.44,-149.8"/>
<text text-anchor="middle" x="226" y="-127.6" font-family="Times,serif" font-size="14.00">AddStudentModule</text>
</g>
<!-- AddStudentComponent&#45;&gt;AddStudentModule -->
<g id="edge1" class="edge">
<title>AddStudentComponent&#45;&gt;AddStudentModule</title>
<path fill="none" stroke="black" d="M226,-84.91C226,-84.91 226,-103.79 226,-103.79"/>
<polygon fill="black" stroke="black" points="222.5,-103.79 226,-113.79 229.5,-103.79 222.5,-103.79"/>
</g>
<!-- SpinnerModule -->
<g id="node3" class="node">
<title>SpinnerModule</title>
<polygon fill="#8dd3c7" stroke="black" points="127.6,-84.8 124.6,-88.8 103.6,-88.8 100.6,-84.8 24.4,-84.8 24.4,-48.8 127.6,-48.8 127.6,-84.8"/>
<text text-anchor="middle" x="76" y="-62.6" font-family="Times,serif" font-size="14.00">SpinnerModule</text>
</g>
<!-- SpinnerModule&#45;&gt;AddStudentModule -->
<g id="edge2" class="edge">
<title>SpinnerModule&#45;&gt;AddStudentModule</title>
<path fill="none" stroke="black" d="M76,-84.91C76,-104.14 76,-131.8 76,-131.8 76,-131.8 152.39,-131.8 152.39,-131.8"/>
<polygon fill="black" stroke="black" points="152.39,-135.3 162.39,-131.8 152.39,-128.3 152.39,-135.3"/>
</g>
<!-- StudentApiService -->
<g id="node4" class="node">
<title>StudentApiService</title>
<ellipse fill="#fdb462" stroke="black" cx="408" cy="-66.8" rx="83.97" ry="18"/>
<text text-anchor="middle" x="408" y="-62.6" font-family="Times,serif" font-size="14.00">StudentApiService</text>
</g>
<!-- StudentApiService&#45;&gt;AddStudentModule -->
<g id="edge3" class="edge">
<title>StudentApiService&#45;&gt;AddStudentModule</title>
<path fill="none" stroke="black" d="M408,-84.91C408,-104.14 408,-131.8 408,-131.8 408,-131.8 299.4,-131.8 299.4,-131.8"/>
<polygon fill="black" stroke="black" points="299.4,-128.3 289.4,-131.8 299.4,-135.3 299.4,-128.3"/>
</g>
</g>
</svg>
