<?xml version="1.0" encoding="UTF-8" standalone="no"?>
<!DOCTYPE svg PUBLIC "-//W3C//DTD SVG 1.1//EN"
 "http://www.w3.org/Graphics/SVG/1.1/DTD/svg11.dtd">
<!-- Generated by graphviz version 5.0.0 (20220707.1540)
 -->
<!-- Title: dependencies Pages: 1 -->
<svg width="4118pt" height="329pt"
 viewBox="0.00 0.00 4118.00 328.80" xmlns="http://www.w3.org/2000/svg" xmlns:xlink="http://www.w3.org/1999/xlink">
<g id="graph0" class="graph" transform="scale(1 1) rotate(0) translate(4 324.8)">
<title>dependencies</title>
<polygon fill="white" stroke="transparent" points="-4,4 -4,-324.8 4114,-324.8 4114,4 -4,4"/>
<text text-anchor="middle" x="2055" y="-8.2" font-family="sans-serif" font-size="14.00">dependencies</text>
<g id="clust1" class="cluster">
<title>cluster_AddCourseModule</title>
<polygon fill="none" stroke="black" stroke-dasharray="1,5" points="8,-32.8 8,-160.8 502,-160.8 502,-32.8 8,-32.8"/>
</g>
<g id="clust2" class="cluster">
<title>cluster_AddCourseModule_declarations</title>
<polygon fill="none" stroke="black" points="16,-40.8 16,-92.8 178,-92.8 178,-40.8 16,-40.8"/>
</g>
<g id="clust4" class="cluster">
<title>cluster_AddCourseModule_imports</title>
<polygon fill="none" stroke="black" points="374,-40.8 374,-92.8 494,-92.8 494,-40.8 374,-40.8"/>
</g>
<g id="clust7" class="cluster">
<title>cluster_AddCourseModule_providers</title>
<polygon fill="none" stroke="black" points="186,-40.8 186,-92.8 366,-92.8 366,-40.8 186,-40.8"/>
</g>
<g id="clust8" class="cluster">
<title>cluster_AddStudentModule</title>
<polygon fill="none" stroke="black" stroke-dasharray="1,5" points="826,-32.8 826,-160.8 1198,-160.8 1198,-32.8 826,-32.8"/>
</g>
<g id="clust9" class="cluster">
<title>cluster_AddStudentModule_declarations</title>
<polygon fill="none" stroke="black" points="834,-40.8 834,-92.8 998,-92.8 998,-40.8 834,-40.8"/>
</g>
<g id="clust14" class="cluster">
<title>cluster_AddStudentModule_providers</title>
<polygon fill="none" stroke="black" points="1006,-40.8 1006,-92.8 1190,-92.8 1190,-40.8 1006,-40.8"/>
</g>
<g id="clust15" class="cluster">
<title>cluster_AppModule</title>
<polygon fill="none" stroke="black" stroke-dasharray="1,5" points="3334,-32.8 3334,-312.8 3608,-312.8 3608,-32.8 3334,-32.8"/>
</g>
<g id="clust16" class="cluster">
<title>cluster_AppModule_declarations</title>
<polygon fill="none" stroke="black" points="3354,-108.8 3354,-160.8 3476,-160.8 3476,-108.8 3354,-108.8"/>
</g>
<g id="clust18" class="cluster">
<title>cluster_AppModule_imports</title>
<polygon fill="none" stroke="black" points="3484,-40.8 3484,-160.8 3600,-160.8 3600,-40.8 3484,-40.8"/>
</g>
<g id="clust20" class="cluster">
<title>cluster_AppModule_bootstrap</title>
<polygon fill="none" stroke="black" points="3353,-252.8 3353,-304.8 3477,-304.8 3477,-252.8 3353,-252.8"/>
</g>
<g id="clust22" class="cluster">
<title>cluster_CoursesModule</title>
<polygon fill="none" stroke="black" stroke-dasharray="1,5" points="1206,-32.8 1206,-244.8 1550,-244.8 1550,-32.8 1206,-32.8"/>
</g>
<g id="clust23" class="cluster">
<title>cluster_CoursesModule_declarations</title>
<polygon fill="none" stroke="black" points="1214,-40.8 1214,-92.8 1536,-92.8 1536,-40.8 1214,-40.8"/>
</g>
<g id="clust27" class="cluster">
<title>cluster_CoursesModule_exports</title>
<polygon fill="none" stroke="black" points="1214,-184.8 1214,-236.8 1542,-236.8 1542,-184.8 1214,-184.8"/>
</g>
<g id="clust30" class="cluster">
<title>cluster_HeaderModule</title>
<polygon fill="none" stroke="black" stroke-dasharray="1,5" points="3616,-176.8 3616,-244.8 3920,-244.8 3920,-176.8 3616,-176.8"/>
</g>
<g id="clust31" class="cluster">
<title>cluster_HeaderModule_declarations</title>
<polygon fill="none" stroke="black" points="3774,-184.8 3774,-236.8 3912,-236.8 3912,-184.8 3774,-184.8"/>
</g>
<g id="clust34" class="cluster">
<title>cluster_HeaderModule_exports</title>
<polygon fill="none" stroke="black" points="3624,-184.8 3624,-236.8 3766,-236.8 3766,-184.8 3624,-184.8"/>
</g>
<g id="clust37" class="cluster">
<title>cluster_NotFoundModule</title>
<polygon fill="none" stroke="black" stroke-dasharray="1,5" points="3928,-32.8 3928,-244.8 4102,-244.8 4102,-32.8 3928,-32.8"/>
</g>
<g id="clust38" class="cluster">
<title>cluster_NotFoundModule_declarations</title>
<polygon fill="none" stroke="black" points="3938,-40.8 3938,-92.8 4092,-92.8 4092,-40.8 3938,-40.8"/>
</g>
<g id="clust41" class="cluster">
<title>cluster_NotFoundModule_exports</title>
<polygon fill="none" stroke="black" points="3936,-184.8 3936,-236.8 4094,-236.8 4094,-184.8 3936,-184.8"/>
</g>
<g id="clust50" class="cluster">
<title>cluster_SpinnerModule</title>
<polygon fill="none" stroke="black" stroke-dasharray="1,5" points="510,-100.8 510,-168.8 818,-168.8 818,-100.8 510,-100.8"/>
</g>
<g id="clust51" class="cluster">
<title>cluster_SpinnerModule_declarations</title>
<polygon fill="none" stroke="black" points="670,-108.8 670,-160.8 810,-160.8 810,-108.8 670,-108.8"/>
</g>
<g id="clust54" class="cluster">
<title>cluster_SpinnerModule_exports</title>
<polygon fill="none" stroke="black" points="518,-108.8 518,-160.8 662,-160.8 662,-108.8 518,-108.8"/>
</g>
<g id="clust57" class="cluster">
<title>cluster_StudentsModule</title>
<polygon fill="none" stroke="black" stroke-dasharray="1,5" points="1558,-32.8 1558,-244.8 3326,-244.8 3326,-32.8 1558,-32.8"/>
</g>
<g id="clust58" class="cluster">
<title>cluster_StudentsModule_declarations</title>
<polygon fill="none" stroke="black" points="2264,-40.8 2264,-92.8 3318,-92.8 3318,-40.8 2264,-40.8"/>
</g>
<g id="clust66" class="cluster">
<title>cluster_StudentsModule_exports</title>
<polygon fill="none" stroke="black" points="1825,-184.8 1825,-236.8 2900,-236.8 2900,-184.8 1825,-184.8"/>
</g>
<g id="clust68" class="cluster">
<title>cluster_StudentsModule_providers</title>
<polygon fill="none" stroke="black" points="1566,-40.8 1566,-92.8 2256,-92.8 2256,-40.8 1566,-40.8"/>
</g>
<!-- AddCourseComponent -->
<g id="node1" class="node">
<title>AddCourseComponent</title>
<polygon fill="#ffffb3" stroke="black" points="169.6,-84.8 24.4,-84.8 24.4,-48.8 169.6,-48.8 169.6,-84.8"/>
<text text-anchor="middle" x="97" y="-62.6" font-family="Times,serif" font-size="14.00">AddCourseComponent</text>
</g>
<!-- AddCourseModule -->
<g id="node2" class="node">
<title>AddCourseModule</title>
<polygon fill="#8dd3c7" stroke="black" points="337.82,-152.8 334.82,-156.8 313.82,-156.8 310.82,-152.8 214.18,-152.8 214.18,-116.8 337.82,-116.8 337.82,-152.8"/>
<text text-anchor="middle" x="276" y="-130.6" font-family="Times,serif" font-size="14.00">AddCourseModule</text>
</g>
<!-- AddCourseComponent&#45;&gt;AddCourseModule -->
<g id="edge1" class="edge">
<title>AddCourseComponent&#45;&gt;AddCourseModule</title>
<path fill="none" stroke="black" d="M97,-85.02C97,-105.17 97,-134.8 97,-134.8 97,-134.8 204.15,-134.8 204.15,-134.8"/>
<polygon fill="black" stroke="black" points="204.15,-138.3 214.15,-134.8 204.15,-131.3 204.15,-138.3"/>
</g>
<!-- SpinnerModule -->
<g id="node3" class="node">
<title>SpinnerModule</title>
<polygon fill="#8dd3c7" stroke="black" points="485.6,-84.8 482.6,-88.8 461.6,-88.8 458.6,-84.8 382.4,-84.8 382.4,-48.8 485.6,-48.8 485.6,-84.8"/>
<text text-anchor="middle" x="434" y="-62.6" font-family="Times,serif" font-size="14.00">SpinnerModule</text>
</g>
<!-- SpinnerModule&#45;&gt;AddCourseModule -->
<g id="edge2" class="edge">
<title>SpinnerModule&#45;&gt;AddCourseModule</title>
<path fill="none" stroke="black" d="M444.31,-85.07C444.31,-103.36 444.31,-128.8 444.31,-128.8 444.31,-128.8 347.72,-128.8 347.72,-128.8"/>
<polygon fill="black" stroke="black" points="347.72,-125.3 337.72,-128.8 347.72,-132.3 347.72,-125.3"/>
</g>
<!-- AddStudentModule -->
<g id="node6" class="node">
<title>AddStudentModule</title>
<polygon fill="#8dd3c7" stroke="black" points="979.44,-152.8 976.44,-156.8 955.44,-156.8 952.44,-152.8 852.56,-152.8 852.56,-116.8 979.44,-116.8 979.44,-152.8"/>
<text text-anchor="middle" x="916" y="-130.6" font-family="Times,serif" font-size="14.00">AddStudentModule</text>
</g>
<!-- SpinnerModule&#45;&gt;AddStudentModule -->
<g id="edge5" class="edge">
<title>SpinnerModule&#45;&gt;AddStudentModule</title>
<path fill="none" stroke="black" d="M485.95,-60.8C591.72,-60.8 822.17,-60.8 822.17,-60.8 822.17,-60.8 822.17,-134.8 822.17,-134.8 822.17,-134.8 842.63,-134.8 842.63,-134.8"/>
<polygon fill="black" stroke="black" points="842.63,-138.3 852.63,-134.8 842.63,-131.3 842.63,-138.3"/>
</g>
<!-- CoursesModule -->
<g id="node15" class="node">
<title>CoursesModule</title>
<polygon fill="#8dd3c7" stroke="black" points="1355.16,-152.8 1352.16,-156.8 1331.16,-156.8 1328.16,-152.8 1250.84,-152.8 1250.84,-116.8 1355.16,-116.8 1355.16,-152.8"/>
<text text-anchor="middle" x="1303" y="-130.6" font-family="Times,serif" font-size="14.00">CoursesModule</text>
</g>
<!-- SpinnerModule&#45;&gt;CoursesModule -->
<g id="edge13" class="edge">
<title>SpinnerModule&#45;&gt;CoursesModule</title>
<path fill="none" stroke="black" d="M403.07,-84.91C403.07,-94.7 403.07,-104.8 403.07,-104.8 403.07,-104.8 1303,-104.8 1303,-104.8 1303,-104.8 1303,-106.66 1303,-106.66"/>
<polygon fill="black" stroke="black" points="1299.5,-106.66 1303,-116.66 1306.5,-106.66 1299.5,-106.66"/>
</g>
<!-- SpinnerComponent  -->
<g id="node24" class="node">
<title>SpinnerComponent </title>
<polygon fill="#fb8072" stroke="black" points="654.38,-152.8 525.62,-152.8 525.62,-116.8 654.38,-116.8 654.38,-152.8"/>
<text text-anchor="middle" x="590" y="-130.6" font-family="Times,serif" font-size="14.00">SpinnerComponent </text>
</g>
<!-- SpinnerModule&#45;&gt;SpinnerComponent  -->
<g id="edge23" class="edge">
<title>SpinnerModule&#45;&gt;SpinnerComponent </title>
<path fill="none" stroke="black" stroke-dasharray="5,2" d="M464.93,-85.09C464.93,-107.01 464.93,-140.8 464.93,-140.8 464.93,-140.8 515.63,-140.8 515.63,-140.8"/>
<polygon fill="black" stroke="black" points="515.63,-144.3 525.63,-140.8 515.63,-137.3 515.63,-144.3"/>
</g>
<!-- StudentsModule -->
<g id="node31" class="node">
<title>StudentsModule</title>
<polygon fill="#8dd3c7" stroke="black" points="2407.78,-152.8 2404.78,-156.8 2383.78,-156.8 2380.78,-152.8 2300.22,-152.8 2300.22,-116.8 2407.78,-116.8 2407.78,-152.8"/>
<text text-anchor="middle" x="2354" y="-130.6" font-family="Times,serif" font-size="14.00">StudentsModule</text>
</g>
<!-- SpinnerModule&#45;&gt;StudentsModule -->
<g id="edge30" class="edge">
<title>SpinnerModule&#45;&gt;StudentsModule</title>
<path fill="none" stroke="black" d="M423.69,-84.83C423.69,-91.65 423.69,-97.8 423.69,-97.8 423.69,-97.8 2327.06,-97.8 2327.06,-97.8 2327.06,-97.8 2327.06,-106.73 2327.06,-106.73"/>
<polygon fill="black" stroke="black" points="2323.56,-106.73 2327.06,-116.73 2330.56,-106.73 2323.56,-106.73"/>
</g>
<!-- CourseApiService -->
<g id="node4" class="node">
<title>CourseApiService</title>
<ellipse fill="#fdb462" stroke="black" cx="276" cy="-66.8" rx="81.67" ry="18"/>
<text text-anchor="middle" x="276" y="-62.6" font-family="Times,serif" font-size="14.00">CourseApiService</text>
</g>
<!-- CourseApiService&#45;&gt;AddCourseModule -->
<g id="edge3" class="edge">
<title>CourseApiService&#45;&gt;AddCourseModule</title>
<path fill="none" stroke="black" d="M276,-85.02C276,-85.02 276,-106.53 276,-106.53"/>
<polygon fill="black" stroke="black" points="272.5,-106.53 276,-116.53 279.5,-106.53 272.5,-106.53"/>
</g>
<!-- CourseApiService&#45;&gt;CoursesModule -->
<g id="edge16" class="edge">
<title>CourseApiService&#45;&gt;CoursesModule</title>
<path fill="none" stroke="black" d="M347.75,-75.7C347.75,-88.56 347.75,-110.8 347.75,-110.8 347.75,-110.8 1276.83,-110.8 1276.83,-110.8 1276.83,-110.8 1276.83,-111.38 1276.83,-111.38"/>
<polygon fill="black" stroke="black" points="1273.33,-106.61 1276.83,-116.61 1280.33,-106.61 1273.33,-106.61"/>
</g>
<!-- AddStudentComponent -->
<g id="node5" class="node">
<title>AddStudentComponent</title>
<polygon fill="#ffffb3" stroke="black" points="990.22,-84.8 841.78,-84.8 841.78,-48.8 990.22,-48.8 990.22,-84.8"/>
<text text-anchor="middle" x="916" y="-62.6" font-family="Times,serif" font-size="14.00">AddStudentComponent</text>
</g>
<!-- AddStudentComponent&#45;&gt;AddStudentModule -->
<g id="edge4" class="edge">
<title>AddStudentComponent&#45;&gt;AddStudentModule</title>
<path fill="none" stroke="black" d="M916,-85.02C916,-85.02 916,-106.53 916,-106.53"/>
<polygon fill="black" stroke="black" points="912.5,-106.53 916,-116.53 919.5,-106.53 912.5,-106.53"/>
</g>
<!-- StudentApiService -->
<g id="node7" class="node">
<title>StudentApiService</title>
<ellipse fill="#fdb462" stroke="black" cx="1098" cy="-66.8" rx="83.97" ry="18"/>
<text text-anchor="middle" x="1098" y="-62.6" font-family="Times,serif" font-size="14.00">StudentApiService</text>
</g>
<!-- StudentApiService&#45;&gt;AddStudentModule -->
<g id="edge6" class="edge">
<title>StudentApiService&#45;&gt;AddStudentModule</title>
<path fill="none" stroke="black" d="M1126,-83.96C1126,-104.1 1126,-134.8 1126,-134.8 1126,-134.8 989.29,-134.8 989.29,-134.8"/>
<polygon fill="black" stroke="black" points="989.29,-131.3 979.29,-134.8 989.29,-138.3 989.29,-131.3"/>
</g>
<!-- StudentApiService&#45;&gt;StudentsModule -->
<g id="edge39" class="edge">
<title>StudentApiService&#45;&gt;StudentsModule</title>
<path fill="none" stroke="black" d="M1070,-83.89C1070,-88.28 1070,-91.8 1070,-91.8 1070,-91.8 2354,-91.8 2354,-91.8 2354,-91.8 2354,-106.31 2354,-106.31"/>
<polygon fill="black" stroke="black" points="2350.5,-106.31 2354,-116.31 2357.5,-106.31 2350.5,-106.31"/>
</g>
<!-- AppComponent -->
<g id="node8" class="node">
<title>AppComponent</title>
<polygon fill="#ffffb3" stroke="black" points="3467.94,-152.8 3362.06,-152.8 3362.06,-116.8 3467.94,-116.8 3467.94,-152.8"/>
<text text-anchor="middle" x="3415" y="-130.6" font-family="Times,serif" font-size="14.00">AppComponent</text>
</g>
<!-- AppModule -->
<g id="node9" class="node">
<title>AppModule</title>
<polygon fill="#8dd3c7" stroke="black" points="3456.66,-228.8 3453.66,-232.8 3432.66,-232.8 3429.66,-228.8 3373.34,-228.8 3373.34,-192.8 3456.66,-192.8 3456.66,-228.8"/>
<text text-anchor="middle" x="3415" y="-206.6" font-family="Times,serif" font-size="14.00">AppModule</text>
</g>
<!-- AppComponent&#45;&gt;AppModule -->
<g id="edge7" class="edge">
<title>AppComponent&#45;&gt;AppModule</title>
<path fill="none" stroke="black" d="M3415,-152.81C3415,-152.81 3415,-182.65 3415,-182.65"/>
<polygon fill="black" stroke="black" points="3411.5,-182.65 3415,-192.65 3418.5,-182.65 3411.5,-182.65"/>
</g>
<!-- AppComponent  -->
<g id="node12" class="node">
<title>AppComponent </title>
<polygon fill="#80b1d3" stroke="black" points="3469.44,-296.8 3360.56,-296.8 3360.56,-260.8 3469.44,-260.8 3469.44,-296.8"/>
<text text-anchor="middle" x="3415" y="-274.6" font-family="Times,serif" font-size="14.00">AppComponent </text>
</g>
<!-- AppModule&#45;&gt;AppComponent  -->
<g id="edge10" class="edge">
<title>AppModule&#45;&gt;AppComponent </title>
<path fill="none" stroke="black" stroke-dasharray="1,5" d="M3415,-229.02C3415,-229.02 3415,-250.53 3415,-250.53"/>
<polygon fill="black" stroke="black" points="3411.5,-250.53 3415,-260.53 3418.5,-250.53 3411.5,-250.53"/>
</g>
<!-- HeaderModule -->
<g id="node10" class="node">
<title>HeaderModule</title>
<polygon fill="#8dd3c7" stroke="black" points="3591.97,-152.8 3588.97,-156.8 3567.97,-156.8 3564.97,-152.8 3492.03,-152.8 3492.03,-116.8 3591.97,-116.8 3591.97,-152.8"/>
<text text-anchor="middle" x="3542" y="-130.6" font-family="Times,serif" font-size="14.00">HeaderModule</text>
</g>
<!-- HeaderModule&#45;&gt;AppModule -->
<g id="edge8" class="edge">
<title>HeaderModule&#45;&gt;AppModule</title>
<path fill="none" stroke="black" d="M3525.34,-152.83C3525.34,-177.78 3525.34,-219.8 3525.34,-219.8 3525.34,-219.8 3466.71,-219.8 3466.71,-219.8"/>
<polygon fill="black" stroke="black" points="3466.71,-216.3 3456.71,-219.8 3466.71,-223.3 3466.71,-216.3"/>
</g>
<!-- HeaderComponent  -->
<g id="node19" class="node">
<title>HeaderComponent </title>
<polygon fill="#fb8072" stroke="black" points="3757.75,-228.8 3632.25,-228.8 3632.25,-192.8 3757.75,-192.8 3757.75,-228.8"/>
<text text-anchor="middle" x="3695" y="-206.6" font-family="Times,serif" font-size="14.00">HeaderComponent </text>
</g>
<!-- HeaderModule&#45;&gt;HeaderComponent  -->
<g id="edge19" class="edge">
<title>HeaderModule&#45;&gt;HeaderComponent </title>
<path fill="none" stroke="black" stroke-dasharray="5,2" d="M3558.66,-152.81C3558.66,-175.29 3558.66,-210.8 3558.66,-210.8 3558.66,-210.8 3622.02,-210.8 3622.02,-210.8"/>
<polygon fill="black" stroke="black" points="3622.02,-214.3 3632.02,-210.8 3622.02,-207.3 3622.02,-214.3"/>
</g>
<!-- RoutesModule -->
<g id="node11" class="node">
<title>RoutesModule</title>
<polygon fill="#8dd3c7" stroke="black" points="3590.44,-84.8 3587.44,-88.8 3566.44,-88.8 3563.44,-84.8 3491.56,-84.8 3491.56,-48.8 3590.44,-48.8 3590.44,-84.8"/>
<text text-anchor="middle" x="3541" y="-62.6" font-family="Times,serif" font-size="14.00">RoutesModule</text>
</g>
<!-- RoutesModule&#45;&gt;AppModule -->
<g id="edge9" class="edge">
<title>RoutesModule&#45;&gt;AppModule</title>
<path fill="none" stroke="black" d="M3491.7,-66.8C3485.14,-66.8 3480.62,-66.8 3480.62,-66.8 3480.62,-66.8 3480.62,-201.8 3480.62,-201.8 3480.62,-201.8 3466.93,-201.8 3466.93,-201.8"/>
<polygon fill="black" stroke="black" points="3466.93,-198.3 3456.93,-201.8 3466.93,-205.3 3466.93,-198.3"/>
</g>
<!-- RoutesModule&#45;&gt;HeaderModule -->
<g id="edge18" class="edge">
<title>RoutesModule&#45;&gt;HeaderModule</title>
<path fill="none" stroke="black" d="M3541.12,-85.02C3541.12,-85.02 3541.12,-106.53 3541.12,-106.53"/>
<polygon fill="black" stroke="black" points="3537.62,-106.53 3541.12,-116.53 3544.62,-106.53 3537.62,-106.53"/>
</g>
<!-- CoursesComponent -->
<g id="node13" class="node">
<title>CoursesComponent</title>
<polygon fill="#ffffb3" stroke="black" points="1528.44,-84.8 1401.56,-84.8 1401.56,-48.8 1528.44,-48.8 1528.44,-84.8"/>
<text text-anchor="middle" x="1465" y="-62.6" font-family="Times,serif" font-size="14.00">CoursesComponent</text>
</g>
<!-- CoursesComponent&#45;&gt;CoursesModule -->
<g id="edge11" class="edge">
<title>CoursesComponent&#45;&gt;CoursesModule</title>
<path fill="none" stroke="black" d="M1486.82,-85.05C1486.82,-107.82 1486.82,-143.8 1486.82,-143.8 1486.82,-143.8 1365.18,-143.8 1365.18,-143.8"/>
<polygon fill="black" stroke="black" points="1365.18,-140.3 1355.18,-143.8 1365.18,-147.3 1365.18,-140.3"/>
</g>
<!-- UpdateCourseComponent -->
<g id="node14" class="node">
<title>UpdateCourseComponent</title>
<polygon fill="#ffffb3" stroke="black" points="1383.92,-84.8 1222.08,-84.8 1222.08,-48.8 1383.92,-48.8 1383.92,-84.8"/>
<text text-anchor="middle" x="1303" y="-62.6" font-family="Times,serif" font-size="14.00">UpdateCourseComponent</text>
</g>
<!-- UpdateCourseComponent&#45;&gt;CoursesModule -->
<g id="edge12" class="edge">
<title>UpdateCourseComponent&#45;&gt;CoursesModule</title>
<path fill="none" stroke="black" d="M1329.17,-85.02C1329.17,-85.02 1329.17,-106.53 1329.17,-106.53"/>
<polygon fill="black" stroke="black" points="1325.67,-106.53 1329.17,-116.53 1332.67,-106.53 1325.67,-106.53"/>
</g>
<!-- CoursesComponent  -->
<g id="node16" class="node">
<title>CoursesComponent </title>
<polygon fill="#fb8072" stroke="black" points="1533.94,-228.8 1404.06,-228.8 1404.06,-192.8 1533.94,-192.8 1533.94,-228.8"/>
<text text-anchor="middle" x="1469" y="-206.6" font-family="Times,serif" font-size="14.00">CoursesComponent </text>
</g>
<!-- CoursesModule&#45;&gt;CoursesComponent  -->
<g id="edge14" class="edge">
<title>CoursesModule&#45;&gt;CoursesComponent </title>
<path fill="none" stroke="black" stroke-dasharray="5,2" d="M1355.23,-148.8C1395.87,-148.8 1445.43,-148.8 1445.43,-148.8 1445.43,-148.8 1445.43,-182.53 1445.43,-182.53"/>
<polygon fill="black" stroke="black" points="1441.93,-182.53 1445.43,-192.53 1448.93,-182.53 1441.93,-182.53"/>
</g>
<!-- UpdateCourseComponent  -->
<g id="node17" class="node">
<title>UpdateCourseComponent </title>
<polygon fill="#fb8072" stroke="black" points="1386.42,-228.8 1221.58,-228.8 1221.58,-192.8 1386.42,-192.8 1386.42,-228.8"/>
<text text-anchor="middle" x="1304" y="-206.6" font-family="Times,serif" font-size="14.00">UpdateCourseComponent </text>
</g>
<!-- CoursesModule&#45;&gt;UpdateCourseComponent  -->
<g id="edge15" class="edge">
<title>CoursesModule&#45;&gt;UpdateCourseComponent </title>
<path fill="none" stroke="black" stroke-dasharray="5,2" d="M1303,-152.81C1303,-152.81 1303,-182.65 1303,-182.65"/>
<polygon fill="black" stroke="black" points="1299.5,-182.65 1303,-192.65 1306.5,-182.65 1299.5,-182.65"/>
</g>
<!-- HeaderComponent -->
<g id="node18" class="node">
<title>HeaderComponent</title>
<polygon fill="#ffffb3" stroke="black" points="3903.75,-228.8 3782.25,-228.8 3782.25,-192.8 3903.75,-192.8 3903.75,-228.8"/>
<text text-anchor="middle" x="3843" y="-206.6" font-family="Times,serif" font-size="14.00">HeaderComponent</text>
</g>
<!-- HeaderComponent&#45;&gt;HeaderModule -->
<g id="edge17" class="edge">
<title>HeaderComponent&#45;&gt;HeaderModule</title>
<path fill="none" stroke="black" d="M3843,-192.79C3843,-170.31 3843,-134.8 3843,-134.8 3843,-134.8 3602.04,-134.8 3602.04,-134.8"/>
<polygon fill="black" stroke="black" points="3602.04,-131.3 3592.04,-134.8 3602.04,-138.3 3602.04,-131.3"/>
</g>
<!-- NotFoundComponent -->
<g id="node20" class="node">
<title>NotFoundComponent</title>
<polygon fill="#ffffb3" stroke="black" points="4084.12,-84.8 3945.88,-84.8 3945.88,-48.8 4084.12,-48.8 4084.12,-84.8"/>
<text text-anchor="middle" x="4015" y="-62.6" font-family="Times,serif" font-size="14.00">NotFoundComponent</text>
</g>
<!-- NotFoundModule -->
<g id="node21" class="node">
<title>NotFoundModule</title>
<polygon fill="#8dd3c7" stroke="black" points="4073.34,-152.8 4070.34,-156.8 4049.34,-156.8 4046.34,-152.8 3956.66,-152.8 3956.66,-116.8 4073.34,-116.8 4073.34,-152.8"/>
<text text-anchor="middle" x="4015" y="-130.6" font-family="Times,serif" font-size="14.00">NotFoundModule</text>
</g>
<!-- NotFoundComponent&#45;&gt;NotFoundModule -->
<g id="edge20" class="edge">
<title>NotFoundComponent&#45;&gt;NotFoundModule</title>
<path fill="none" stroke="black" d="M4015,-85.02C4015,-85.02 4015,-106.53 4015,-106.53"/>
<polygon fill="black" stroke="black" points="4011.5,-106.53 4015,-116.53 4018.5,-106.53 4011.5,-106.53"/>
</g>
<!-- NotFoundComponent  -->
<g id="node22" class="node">
<title>NotFoundComponent </title>
<polygon fill="#fb8072" stroke="black" points="4085.62,-228.8 3944.38,-228.8 3944.38,-192.8 4085.62,-192.8 4085.62,-228.8"/>
<text text-anchor="middle" x="4015" y="-206.6" font-family="Times,serif" font-size="14.00">NotFoundComponent </text>
</g>
<!-- NotFoundModule&#45;&gt;NotFoundComponent  -->
<g id="edge21" class="edge">
<title>NotFoundModule&#45;&gt;NotFoundComponent </title>
<path fill="none" stroke="black" stroke-dasharray="5,2" d="M4015,-152.81C4015,-152.81 4015,-182.65 4015,-182.65"/>
<polygon fill="black" stroke="black" points="4011.5,-182.65 4015,-192.65 4018.5,-182.65 4011.5,-182.65"/>
</g>
<!-- SpinnerComponent -->
<g id="node23" class="node">
<title>SpinnerComponent</title>
<polygon fill="#ffffb3" stroke="black" points="802.38,-152.8 677.62,-152.8 677.62,-116.8 802.38,-116.8 802.38,-152.8"/>
<text text-anchor="middle" x="740" y="-130.6" font-family="Times,serif" font-size="14.00">SpinnerComponent</text>
</g>
<!-- SpinnerComponent&#45;&gt;SpinnerModule -->
<g id="edge22" class="edge">
<title>SpinnerComponent&#45;&gt;SpinnerModule</title>
<path fill="none" stroke="black" d="M740,-116.53C740,-98.24 740,-72.8 740,-72.8 740,-72.8 495.56,-72.8 495.56,-72.8"/>
<polygon fill="black" stroke="black" points="495.56,-69.3 485.56,-72.8 495.56,-76.3 495.56,-69.3"/>
</g>
<!-- StudentCourseComponent -->
<g id="node25" class="node">
<title>StudentCourseComponent</title>
<polygon fill="#ffffb3" stroke="black" points="3309.77,-84.8 3146.23,-84.8 3146.23,-48.8 3309.77,-48.8 3309.77,-84.8"/>
<text text-anchor="middle" x="3228" y="-62.6" font-family="Times,serif" font-size="14.00">StudentCourseComponent</text>
</g>
<!-- StudentCourseComponent&#45;&gt;StudentsModule -->
<g id="edge24" class="edge">
<title>StudentCourseComponent&#45;&gt;StudentsModule</title>
<path fill="none" stroke="black" d="M3228,-84.84C3228,-106.46 3228,-139.8 3228,-139.8 3228,-139.8 2418.01,-139.8 2418.01,-139.8"/>
<polygon fill="black" stroke="black" points="2418.01,-136.3 2408.01,-139.8 2418.01,-143.3 2418.01,-136.3"/>
</g>
<!-- StudentGradesComponent -->
<g id="node26" class="node">
<title>StudentGradesComponent</title>
<polygon fill="#ffffb3" stroke="black" points="3127.76,-84.8 2964.24,-84.8 2964.24,-48.8 3127.76,-48.8 3127.76,-84.8"/>
<text text-anchor="middle" x="3046" y="-62.6" font-family="Times,serif" font-size="14.00">StudentGradesComponent</text>
</g>
<!-- StudentGradesComponent&#45;&gt;StudentsModule -->
<g id="edge25" class="edge">
<title>StudentGradesComponent&#45;&gt;StudentsModule</title>
<path fill="none" stroke="black" d="M3046,-85.02C3046,-105.17 3046,-134.8 3046,-134.8 3046,-134.8 2418.01,-134.8 2418.01,-134.8"/>
<polygon fill="black" stroke="black" points="2418.01,-131.3 2408.01,-134.8 2418.01,-138.3 2418.01,-131.3"/>
</g>
<!-- StudentInfoComponent -->
<g id="node27" class="node">
<title>StudentInfoComponent</title>
<polygon fill="#ffffb3" stroke="black" points="2945.94,-84.8 2798.06,-84.8 2798.06,-48.8 2945.94,-48.8 2945.94,-84.8"/>
<text text-anchor="middle" x="2872" y="-62.6" font-family="Times,serif" font-size="14.00">StudentInfoComponent</text>
</g>
<!-- StudentInfoComponent&#45;&gt;StudentsModule -->
<g id="edge26" class="edge">
<title>StudentInfoComponent&#45;&gt;StudentsModule</title>
<path fill="none" stroke="black" d="M2844.96,-84.97C2844.96,-103.89 2844.96,-130.8 2844.96,-130.8 2844.96,-130.8 2417.95,-130.8 2417.95,-130.8"/>
<polygon fill="black" stroke="black" points="2417.95,-127.3 2407.95,-130.8 2417.95,-134.3 2417.95,-127.3"/>
</g>
<!-- StudentPaymentsComponent -->
<g id="node28" class="node">
<title>StudentPaymentsComponent</title>
<polygon fill="#ffffb3" stroke="black" points="2780.05,-84.8 2601.95,-84.8 2601.95,-48.8 2780.05,-48.8 2780.05,-84.8"/>
<text text-anchor="middle" x="2691" y="-62.6" font-family="Times,serif" font-size="14.00">StudentPaymentsComponent</text>
</g>
<!-- StudentPaymentsComponent&#45;&gt;StudentsModule -->
<g id="edge27" class="edge">
<title>StudentPaymentsComponent&#45;&gt;StudentsModule</title>
<path fill="none" stroke="black" d="M2654.18,-84.82C2654.18,-102.17 2654.18,-125.8 2654.18,-125.8 2654.18,-125.8 2418.01,-125.8 2418.01,-125.8"/>
<polygon fill="black" stroke="black" points="2418.01,-122.3 2408.01,-125.8 2418.01,-129.3 2418.01,-122.3"/>
</g>
<!-- StudentsComponent -->
<g id="node29" class="node">
<title>StudentsComponent</title>
<polygon fill="#ffffb3" stroke="black" points="2583.56,-84.8 2454.44,-84.8 2454.44,-48.8 2583.56,-48.8 2583.56,-84.8"/>
<text text-anchor="middle" x="2519" y="-62.6" font-family="Times,serif" font-size="14.00">StudentsComponent</text>
</g>
<!-- StudentsComponent&#45;&gt;StudentsModule -->
<g id="edge28" class="edge">
<title>StudentsComponent&#45;&gt;StudentsModule</title>
<path fill="none" stroke="black" d="M2487.84,-84.81C2487.84,-100.85 2487.84,-121.8 2487.84,-121.8 2487.84,-121.8 2418.05,-121.8 2418.05,-121.8"/>
<polygon fill="black" stroke="black" points="2418.05,-118.3 2408.05,-121.8 2418.05,-125.3 2418.05,-118.3"/>
</g>
<!-- UpdateStudentComponent -->
<g id="node30" class="node">
<title>UpdateStudentComponent</title>
<polygon fill="#ffffb3" stroke="black" points="2436.04,-84.8 2271.96,-84.8 2271.96,-48.8 2436.04,-48.8 2436.04,-84.8"/>
<text text-anchor="middle" x="2354" y="-62.6" font-family="Times,serif" font-size="14.00">UpdateStudentComponent</text>
</g>
<!-- UpdateStudentComponent&#45;&gt;StudentsModule -->
<g id="edge29" class="edge">
<title>UpdateStudentComponent&#45;&gt;StudentsModule</title>
<path fill="none" stroke="black" d="M2380.94,-85.02C2380.94,-85.02 2380.94,-106.53 2380.94,-106.53"/>
<polygon fill="black" stroke="black" points="2377.44,-106.53 2380.94,-116.53 2384.44,-106.53 2377.44,-106.53"/>
</g>
<!-- StudentCourseComponent  -->
<g id="node32" class="node">
<title>StudentCourseComponent </title>
<polygon fill="#fb8072" stroke="black" points="2891.77,-228.8 2724.23,-228.8 2724.23,-192.8 2891.77,-192.8 2891.77,-228.8"/>
<text text-anchor="middle" x="2808" y="-206.6" font-family="Times,serif" font-size="14.00">StudentCourseComponent </text>
</g>
<!-- StudentsModule&#45;&gt;StudentCourseComponent  -->
<g id="edge31" class="edge">
<title>StudentsModule&#45;&gt;StudentCourseComponent </title>
<path fill="none" stroke="black" stroke-dasharray="5,2" d="M2408.13,-143.8C2517.04,-143.8 2752.32,-143.8 2752.32,-143.8 2752.32,-143.8 2752.32,-182.49 2752.32,-182.49"/>
<polygon fill="black" stroke="black" points="2748.82,-182.49 2752.32,-192.49 2755.82,-182.49 2748.82,-182.49"/>
</g>
<!-- StudentGradesComponent  -->
<g id="node33" class="node">
<title>StudentGradesComponent </title>
<polygon fill="#fb8072" stroke="black" points="2706.76,-228.8 2539.24,-228.8 2539.24,-192.8 2706.76,-192.8 2706.76,-228.8"/>
<text text-anchor="middle" x="2623" y="-206.6" font-family="Times,serif" font-size="14.00">StudentGradesComponent </text>
</g>
<!-- StudentsModule&#45;&gt;StudentGradesComponent  -->
<g id="edge32" class="edge">
<title>StudentsModule&#45;&gt;StudentGradesComponent </title>
<path fill="none" stroke="black" stroke-dasharray="5,2" d="M2408,-148.8C2469.5,-148.8 2561.57,-148.8 2561.57,-148.8 2561.57,-148.8 2561.57,-182.53 2561.57,-182.53"/>
<polygon fill="black" stroke="black" points="2558.08,-182.53 2561.57,-192.53 2565.08,-182.53 2558.08,-182.53"/>
</g>
<!-- StudentInfoComponent  -->
<g id="node34" class="node">
<title>StudentInfoComponent </title>
<polygon fill="#fb8072" stroke="black" points="2521.43,-228.8 2370.57,-228.8 2370.57,-192.8 2521.43,-192.8 2521.43,-228.8"/>
<text text-anchor="middle" x="2446" y="-206.6" font-family="Times,serif" font-size="14.00">StudentInfoComponent </text>
</g>
<!-- StudentsModule&#45;&gt;StudentInfoComponent  -->
<g id="edge33" class="edge">
<title>StudentsModule&#45;&gt;StudentInfoComponent </title>
<path fill="none" stroke="black" stroke-dasharray="5,2" d="M2389.21,-152.81C2389.21,-152.81 2389.21,-182.65 2389.21,-182.65"/>
<polygon fill="black" stroke="black" points="2385.71,-182.65 2389.21,-192.65 2392.71,-182.65 2385.71,-182.65"/>
</g>
<!-- StudentPaymentsComponent  -->
<g id="node35" class="node">
<title>StudentPaymentsComponent </title>
<polygon fill="#fb8072" stroke="black" points="2353.05,-228.8 2170.95,-228.8 2170.95,-192.8 2353.05,-192.8 2353.05,-228.8"/>
<text text-anchor="middle" x="2262" y="-206.6" font-family="Times,serif" font-size="14.00">StudentPaymentsComponent </text>
</g>
<!-- StudentsModule&#45;&gt;StudentPaymentsComponent  -->
<g id="edge34" class="edge">
<title>StudentsModule&#45;&gt;StudentPaymentsComponent </title>
<path fill="none" stroke="black" stroke-dasharray="5,2" d="M2326.57,-152.81C2326.57,-152.81 2326.57,-182.65 2326.57,-182.65"/>
<polygon fill="black" stroke="black" points="2323.07,-182.65 2326.57,-192.65 2330.07,-182.65 2323.07,-182.65"/>
</g>
<!-- StudentsComponent  -->
<g id="node36" class="node">
<title>StudentsComponent </title>
<polygon fill="#fb8072" stroke="black" points="2152.56,-228.8 2019.44,-228.8 2019.44,-192.8 2152.56,-192.8 2152.56,-228.8"/>
<text text-anchor="middle" x="2086" y="-206.6" font-family="Times,serif" font-size="14.00">StudentsComponent </text>
</g>
<!-- StudentsModule&#45;&gt;StudentsComponent  -->
<g id="edge35" class="edge">
<title>StudentsModule&#45;&gt;StudentsComponent </title>
<path fill="none" stroke="black" stroke-dasharray="5,2" d="M2299.95,-139.8C2231.47,-139.8 2122.23,-139.8 2122.23,-139.8 2122.23,-139.8 2122.23,-182.52 2122.23,-182.52"/>
<polygon fill="black" stroke="black" points="2118.73,-182.52 2122.23,-192.52 2125.73,-182.52 2118.73,-182.52"/>
</g>
<!-- UpdateStudentComponent  -->
<g id="node37" class="node">
<title>UpdateStudentComponent </title>
<polygon fill="#fb8072" stroke="black" points="2001.04,-228.8 1832.96,-228.8 1832.96,-192.8 2001.04,-192.8 2001.04,-228.8"/>
<text text-anchor="middle" x="1917" y="-206.6" font-family="Times,serif" font-size="14.00">UpdateStudentComponent </text>
</g>
<!-- StudentsModule&#45;&gt;UpdateStudentComponent  -->
<g id="edge36" class="edge">
<title>StudentsModule&#45;&gt;UpdateStudentComponent </title>
<path fill="none" stroke="black" stroke-dasharray="5,2" d="M2299.85,-134.8C2189.59,-134.8 1949.37,-134.8 1949.37,-134.8 1949.37,-134.8 1949.37,-182.79 1949.37,-182.79"/>
<polygon fill="black" stroke="black" points="1945.87,-182.79 1949.37,-192.79 1952.87,-182.79 1945.87,-182.79"/>
</g>
<!-- GradeApiService -->
<g id="node38" class="node">
<title>GradeApiService</title>
<ellipse fill="#fdb462" stroke="black" cx="2170" cy="-66.8" rx="78.14" ry="18"/>
<text text-anchor="middle" x="2170" y="-62.6" font-family="Times,serif" font-size="14.00">GradeApiService</text>
</g>
<!-- GradeApiService&#45;&gt;StudentsModule -->
<g id="edge37" class="edge">
<title>GradeApiService&#45;&gt;StudentsModule</title>
<path fill="none" stroke="black" d="M2209.52,-82.41C2209.52,-98.67 2209.52,-121.8 2209.52,-121.8 2209.52,-121.8 2290.2,-121.8 2290.2,-121.8"/>
<polygon fill="black" stroke="black" points="2290.2,-125.3 2300.2,-121.8 2290.2,-118.3 2290.2,-125.3"/>
</g>
<!-- PaymentApiService -->
<g id="node39" class="node">
<title>PaymentApiService</title>
<ellipse fill="#fdb462" stroke="black" cx="1986" cy="-66.8" rx="88.05" ry="18"/>
<text text-anchor="middle" x="1986" y="-62.6" font-family="Times,serif" font-size="14.00">PaymentApiService</text>
</g>
<!-- PaymentApiService&#45;&gt;StudentsModule -->
<g id="edge38" class="edge">
<title>PaymentApiService&#45;&gt;StudentsModule</title>
<path fill="none" stroke="black" d="M2046.87,-79.89C2046.87,-97.28 2046.87,-125.8 2046.87,-125.8 2046.87,-125.8 2290.15,-125.8 2290.15,-125.8"/>
<polygon fill="black" stroke="black" points="2290.15,-129.3 2300.15,-125.8 2290.15,-122.3 2290.15,-129.3"/>
</g>
<!-- StudentClassroomCourseApiService -->
<g id="node40" class="node">
<title>StudentClassroomCourseApiService</title>
<ellipse fill="#fdb462" stroke="black" cx="1727" cy="-66.8" rx="152.81" ry="18"/>
<text text-anchor="middle" x="1727" y="-62.6" font-family="Times,serif" font-size="14.00">StudentClassroomCourseApiService</text>
</g>
<!-- StudentClassroomCourseApiService&#45;&gt;StudentsModule -->
<g id="edge40" class="edge">
<title>StudentClassroomCourseApiService&#45;&gt;StudentsModule</title>
<path fill="none" stroke="black" d="M1856.32,-76.52C1856.32,-94.42 1856.32,-130.8 1856.32,-130.8 1856.32,-130.8 2289.79,-130.8 2289.79,-130.8"/>
<polygon fill="black" stroke="black" points="2289.79,-134.3 2299.79,-130.8 2289.79,-127.3 2289.79,-134.3"/>
</g>
</g>
</svg>
