<?xml version="1.0" encoding="UTF-8" standalone="no"?>
<!DOCTYPE svg PUBLIC "-//W3C//DTD SVG 1.1//EN"
 "http://www.w3.org/Graphics/SVG/1.1/DTD/svg11.dtd">
<!-- Generated by graphviz version 5.0.0 (20220707.1540)
 -->
<!-- Title: dependencies Pages: 1 -->
<svg width="758pt" height="174pt"
 viewBox="0.00 0.00 758.00 173.80" xmlns="http://www.w3.org/2000/svg" xmlns:xlink="http://www.w3.org/1999/xlink">
<g id="graph0" class="graph" transform="scale(1 1) rotate(0) translate(4 169.8)">
<title>dependencies</title>
<polygon fill="white" stroke="transparent" points="-4,4 -4,-169.8 754,-169.8 754,4 -4,4"/>
<text text-anchor="middle" x="375" y="-8.2" font-family="sans-serif" font-size="14.00">dependencies</text>
<g id="clust1" class="cluster">
<title>cluster_HomeModule</title>
<polygon fill="none" stroke="black" stroke-dasharray="1,5" points="8,-32.8 8,-157.8 742,-157.8 742,-32.8 8,-32.8"/>
</g>
<g id="clust2" class="cluster">
<title>cluster_HomeModule_declarations</title>
<polygon fill="none" stroke="black" points="602,-40.8 602,-92.8 734,-92.8 734,-40.8 602,-40.8"/>
</g>
<g id="clust4" class="cluster">
<title>cluster_HomeModule_imports</title>
<polygon fill="none" stroke="black" points="474,-40.8 474,-92.8 594,-92.8 594,-40.8 474,-40.8"/>
</g>
<g id="clust7" class="cluster">
<title>cluster_HomeModule_providers</title>
<polygon fill="none" stroke="black" points="16,-40.8 16,-92.8 466,-92.8 466,-40.8 16,-40.8"/>
</g>
<!-- HomeComponent -->
<g id="node1" class="node">
<title>HomeComponent</title>
<polygon fill="#ffffb3" stroke="black" points="725.55,-84.8 610.45,-84.8 610.45,-48.8 725.55,-48.8 725.55,-84.8"/>
<text text-anchor="middle" x="668" y="-62.6" font-family="Times,serif" font-size="14.00">HomeComponent</text>
</g>
<!-- HomeModule -->
<g id="node2" class="node">
<title>HomeModule</title>
<polygon fill="#8dd3c7" stroke="black" points="447.77,-149.8 444.77,-153.8 423.77,-153.8 420.77,-149.8 354.23,-149.8 354.23,-113.8 447.77,-113.8 447.77,-149.8"/>
<text text-anchor="middle" x="401" y="-127.6" font-family="Times,serif" font-size="14.00">HomeModule</text>
</g>
<!-- HomeComponent&#45;&gt;HomeModule -->
<g id="edge1" class="edge">
<title>HomeComponent&#45;&gt;HomeModule</title>
<path fill="none" stroke="black" d="M668,-85.08C668,-106.12 668,-137.8 668,-137.8 668,-137.8 457.81,-137.8 457.81,-137.8"/>
<polygon fill="black" stroke="black" points="457.81,-134.3 447.81,-137.8 457.81,-141.3 457.81,-134.3"/>
</g>
<!-- SpinnerModule -->
<g id="node3" class="node">
<title>SpinnerModule</title>
<polygon fill="#8dd3c7" stroke="black" points="585.6,-84.8 582.6,-88.8 561.6,-88.8 558.6,-84.8 482.4,-84.8 482.4,-48.8 585.6,-48.8 585.6,-84.8"/>
<text text-anchor="middle" x="534" y="-62.6" font-family="Times,serif" font-size="14.00">SpinnerModule</text>
</g>
<!-- SpinnerModule&#45;&gt;HomeModule -->
<g id="edge2" class="edge">
<title>SpinnerModule&#45;&gt;HomeModule</title>
<path fill="none" stroke="black" d="M534,-84.82C534,-102.17 534,-125.8 534,-125.8 534,-125.8 457.89,-125.8 457.89,-125.8"/>
<polygon fill="black" stroke="black" points="457.89,-122.3 447.89,-125.8 457.89,-129.3 457.89,-122.3"/>
</g>
<!-- AppService -->
<g id="node4" class="node">
<title>AppService</title>
<ellipse fill="#fdb462" stroke="black" cx="401" cy="-66.8" rx="56.75" ry="18"/>
<text text-anchor="middle" x="401" y="-62.6" font-family="Times,serif" font-size="14.00">AppService</text>
</g>
<!-- AppService&#45;&gt;HomeModule -->
<g id="edge3" class="edge">
<title>AppService&#45;&gt;HomeModule</title>
<path fill="none" stroke="black" d="M401,-84.91C401,-84.91 401,-103.79 401,-103.79"/>
<polygon fill="black" stroke="black" points="397.5,-103.79 401,-113.79 404.5,-103.79 397.5,-103.79"/>
</g>
<!-- HomeApiService -->
<g id="node5" class="node">
<title>HomeApiService</title>
<ellipse fill="#fdb462" stroke="black" cx="248" cy="-66.8" rx="78.16" ry="18"/>
<text text-anchor="middle" x="248" y="-62.6" font-family="Times,serif" font-size="14.00">HomeApiService</text>
</g>
<!-- HomeApiService&#45;&gt;HomeModule -->
<g id="edge4" class="edge">
<title>HomeApiService&#45;&gt;HomeModule</title>
<path fill="none" stroke="black" d="M248,-84.82C248,-102.17 248,-125.8 248,-125.8 248,-125.8 343.85,-125.8 343.85,-125.8"/>
<polygon fill="black" stroke="black" points="343.85,-129.3 353.85,-125.8 343.85,-122.3 343.85,-129.3"/>
</g>
<!-- HomeService -->
<g id="node6" class="node">
<title>HomeService</title>
<ellipse fill="#fdb462" stroke="black" cx="88" cy="-66.8" rx="63.69" ry="18"/>
<text text-anchor="middle" x="88" y="-62.6" font-family="Times,serif" font-size="14.00">HomeService</text>
</g>
<!-- HomeService&#45;&gt;HomeModule -->
<g id="edge5" class="edge">
<title>HomeService&#45;&gt;HomeModule</title>
<path fill="none" stroke="black" d="M88,-85.08C88,-106.12 88,-137.8 88,-137.8 88,-137.8 344.14,-137.8 344.14,-137.8"/>
<polygon fill="black" stroke="black" points="344.14,-141.3 354.14,-137.8 344.14,-134.3 344.14,-141.3"/>
</g>
</g>
</svg>
