<?xml version="1.0" encoding="UTF-8" standalone="no"?>
<!DOCTYPE svg PUBLIC "-//W3C//DTD SVG 1.1//EN"
 "http://www.w3.org/Graphics/SVG/1.1/DTD/svg11.dtd">
<!-- Generated by graphviz version 5.0.0 (20220707.1540)
 -->
<!-- Title: dependencies Pages: 1 -->
<svg width="504pt" height="174pt"
 viewBox="0.00 0.00 504.00 173.80" xmlns="http://www.w3.org/2000/svg" xmlns:xlink="http://www.w3.org/1999/xlink">
<g id="graph0" class="graph" transform="scale(1 1) rotate(0) translate(4 169.8)">
<title>dependencies</title>
<polygon fill="white" stroke="transparent" points="-4,4 -4,-169.8 500,-169.8 500,4 -4,4"/>
<text text-anchor="middle" x="248" y="-8.2" font-family="sans-serif" font-size="14.00">dependencies</text>
<g id="clust1" class="cluster">
<title>cluster_SendTokenModule</title>
<polygon fill="none" stroke="black" stroke-dasharray="1,5" points="8,-32.8 8,-157.8 488,-157.8 488,-32.8 8,-32.8"/>
</g>
<g id="clust2" class="cluster">
<title>cluster_SendTokenModule_declarations</title>
<polygon fill="none" stroke="black" points="318,-40.8 318,-92.8 480,-92.8 480,-40.8 318,-40.8"/>
</g>
<g id="clust7" class="cluster">
<title>cluster_SendTokenModule_providers</title>
<polygon fill="none" stroke="black" points="144,-40.8 144,-92.8 310,-92.8 310,-40.8 144,-40.8"/>
</g>
<g id="clust4" class="cluster">
<title>cluster_SendTokenModule_imports</title>
<polygon fill="none" stroke="black" points="16,-40.8 16,-92.8 136,-92.8 136,-40.8 16,-40.8"/>
</g>
<!-- SendTokenComponent -->
<g id="node1" class="node">
<title>SendTokenComponent</title>
<polygon fill="#ffffb3" stroke="black" points="471.6,-84.8 326.4,-84.8 326.4,-48.8 471.6,-48.8 471.6,-84.8"/>
<text text-anchor="middle" x="399" y="-62.6" font-family="Times,serif" font-size="14.00">SendTokenComponent</text>
</g>
<!-- SendTokenModule -->
<g id="node2" class="node">
<title>SendTokenModule</title>
<polygon fill="#8dd3c7" stroke="black" points="288.82,-149.8 285.82,-153.8 264.82,-153.8 261.82,-149.8 165.18,-149.8 165.18,-113.8 288.82,-113.8 288.82,-149.8"/>
<text text-anchor="middle" x="227" y="-127.6" font-family="Times,serif" font-size="14.00">SendTokenModule</text>
</g>
<!-- SendTokenComponent&#45;&gt;SendTokenModule -->
<g id="edge1" class="edge">
<title>SendTokenComponent&#45;&gt;SendTokenModule</title>
<path fill="none" stroke="black" d="M399,-84.91C399,-104.14 399,-131.8 399,-131.8 399,-131.8 299.1,-131.8 299.1,-131.8"/>
<polygon fill="black" stroke="black" points="299.1,-128.3 289.1,-131.8 299.1,-135.3 299.1,-128.3"/>
</g>
<!-- SpinnerModule -->
<g id="node3" class="node">
<title>SpinnerModule</title>
<polygon fill="#8dd3c7" stroke="black" points="127.6,-84.8 124.6,-88.8 103.6,-88.8 100.6,-84.8 24.4,-84.8 24.4,-48.8 127.6,-48.8 127.6,-84.8"/>
<text text-anchor="middle" x="76" y="-62.6" font-family="Times,serif" font-size="14.00">SpinnerModule</text>
</g>
<!-- SpinnerModule&#45;&gt;SendTokenModule -->
<g id="edge2" class="edge">
<title>SpinnerModule&#45;&gt;SendTokenModule</title>
<path fill="none" stroke="black" d="M76,-84.91C76,-104.14 76,-131.8 76,-131.8 76,-131.8 155.15,-131.8 155.15,-131.8"/>
<polygon fill="black" stroke="black" points="155.15,-135.3 165.15,-131.8 155.15,-128.3 155.15,-135.3"/>
</g>
<!-- AuthAPIService -->
<g id="node4" class="node">
<title>AuthAPIService</title>
<ellipse fill="#fdb462" stroke="black" cx="227" cy="-66.8" rx="74.74" ry="18"/>
<text text-anchor="middle" x="227" y="-62.6" font-family="Times,serif" font-size="14.00">AuthAPIService</text>
</g>
<!-- AuthAPIService&#45;&gt;SendTokenModule -->
<g id="edge3" class="edge">
<title>AuthAPIService&#45;&gt;SendTokenModule</title>
<path fill="none" stroke="black" d="M227,-84.91C227,-84.91 227,-103.79 227,-103.79"/>
<polygon fill="black" stroke="black" points="223.5,-103.79 227,-113.79 230.5,-103.79 223.5,-103.79"/>
</g>
</g>
</svg>
