<?xml version="1.0" encoding="UTF-8" standalone="no"?>
<!DOCTYPE svg PUBLIC "-//W3C//DTD SVG 1.1//EN"
 "http://www.w3.org/Graphics/SVG/1.1/DTD/svg11.dtd">
<!-- Generated by graphviz version 5.0.0 (20220707.1540)
 -->
<!-- Title: dependencies Pages: 1 -->
<svg width="2106pt" height="247pt"
 viewBox="0.00 0.00 2106.00 246.80" xmlns="http://www.w3.org/2000/svg" xmlns:xlink="http://www.w3.org/1999/xlink">
<g id="graph0" class="graph" transform="scale(1 1) rotate(0) translate(4 242.8)">
<title>dependencies</title>
<polygon fill="white" stroke="transparent" points="-4,4 -4,-242.8 2102,-242.8 2102,4 -4,4"/>
<text text-anchor="middle" x="1049" y="-8.2" font-family="sans-serif" font-size="14.00">dependencies</text>
<g id="clust1" class="cluster">
<title>cluster_StudentsModule</title>
<polygon fill="none" stroke="black" stroke-dasharray="1,5" points="8,-32.8 8,-230.8 2090,-230.8 2090,-32.8 8,-32.8"/>
</g>
<g id="clust12" class="cluster">
<title>cluster_StudentsModule_providers</title>
<polygon fill="none" stroke="black" points="1206,-40.8 1206,-92.8 2082,-92.8 2082,-40.8 1206,-40.8"/>
</g>
<g id="clust9" class="cluster">
<title>cluster_StudentsModule_imports</title>
<polygon fill="none" stroke="black" points="1078,-40.8 1078,-92.8 1198,-92.8 1198,-40.8 1078,-40.8"/>
</g>
<g id="clust10" class="cluster">
<title>cluster_StudentsModule_exports</title>
<polygon fill="none" stroke="black" points="451,-170.8 451,-222.8 1526,-222.8 1526,-170.8 451,-170.8"/>
</g>
<g id="clust2" class="cluster">
<title>cluster_StudentsModule_declarations</title>
<polygon fill="none" stroke="black" points="16,-40.8 16,-92.8 1070,-92.8 1070,-40.8 16,-40.8"/>
</g>
<!-- StudentCourseComponent -->
<g id="node1" class="node">
<title>StudentCourseComponent</title>
<polygon fill="#ffffb3" stroke="black" points="1061.77,-84.8 898.23,-84.8 898.23,-48.8 1061.77,-48.8 1061.77,-84.8"/>
<text text-anchor="middle" x="980" y="-62.6" font-family="Times,serif" font-size="14.00">StudentCourseComponent</text>
</g>
<!-- StudentsModule -->
<g id="node7" class="node">
<title>StudentsModule</title>
<polygon fill="#8dd3c7" stroke="black" points="1033.78,-149.8 1030.78,-153.8 1009.78,-153.8 1006.78,-149.8 926.22,-149.8 926.22,-113.8 1033.78,-113.8 1033.78,-149.8"/>
<text text-anchor="middle" x="980" y="-127.6" font-family="Times,serif" font-size="14.00">StudentsModule</text>
</g>
<!-- StudentCourseComponent&#45;&gt;StudentsModule -->
<g id="edge1" class="edge">
<title>StudentCourseComponent&#45;&gt;StudentsModule</title>
<path fill="none" stroke="black" d="M980,-84.91C980,-84.91 980,-103.79 980,-103.79"/>
<polygon fill="black" stroke="black" points="976.5,-103.79 980,-113.79 983.5,-103.79 976.5,-103.79"/>
</g>
<!-- StudentGradesComponent -->
<g id="node2" class="node">
<title>StudentGradesComponent</title>
<polygon fill="#ffffb3" stroke="black" points="879.76,-84.8 716.24,-84.8 716.24,-48.8 879.76,-48.8 879.76,-84.8"/>
<text text-anchor="middle" x="798" y="-62.6" font-family="Times,serif" font-size="14.00">StudentGradesComponent</text>
</g>
<!-- StudentGradesComponent&#45;&gt;StudentsModule -->
<g id="edge2" class="edge">
<title>StudentGradesComponent&#45;&gt;StudentsModule</title>
<path fill="none" stroke="black" d="M838.43,-84.99C838.43,-99.98 838.43,-118.8 838.43,-118.8 838.43,-118.8 916.07,-118.8 916.07,-118.8"/>
<polygon fill="black" stroke="black" points="916.07,-122.3 926.07,-118.8 916.07,-115.3 916.07,-122.3"/>
</g>
<!-- StudentInfoComponent -->
<g id="node3" class="node">
<title>StudentInfoComponent</title>
<polygon fill="#ffffb3" stroke="black" points="697.94,-84.8 550.06,-84.8 550.06,-48.8 697.94,-48.8 697.94,-84.8"/>
<text text-anchor="middle" x="624" y="-62.6" font-family="Times,serif" font-size="14.00">StudentInfoComponent</text>
</g>
<!-- StudentInfoComponent&#45;&gt;StudentsModule -->
<g id="edge3" class="edge">
<title>StudentInfoComponent&#45;&gt;StudentsModule</title>
<path fill="none" stroke="black" d="M671.59,-84.83C671.59,-101.2 671.59,-122.8 671.59,-122.8 671.59,-122.8 915.93,-122.8 915.93,-122.8"/>
<polygon fill="black" stroke="black" points="915.93,-126.3 925.93,-122.8 915.93,-119.3 915.93,-126.3"/>
</g>
<!-- StudentPaymentsComponent -->
<g id="node4" class="node">
<title>StudentPaymentsComponent</title>
<polygon fill="#ffffb3" stroke="black" points="532.05,-84.8 353.95,-84.8 353.95,-48.8 532.05,-48.8 532.05,-84.8"/>
<text text-anchor="middle" x="443" y="-62.6" font-family="Times,serif" font-size="14.00">StudentPaymentsComponent</text>
</g>
<!-- StudentPaymentsComponent&#45;&gt;StudentsModule -->
<g id="edge4" class="edge">
<title>StudentPaymentsComponent&#45;&gt;StudentsModule</title>
<path fill="none" stroke="black" d="M495.63,-85.1C495.63,-103.07 495.63,-127.8 495.63,-127.8 495.63,-127.8 915.85,-127.8 915.85,-127.8"/>
<polygon fill="black" stroke="black" points="915.85,-131.3 925.85,-127.8 915.85,-124.3 915.85,-131.3"/>
</g>
<!-- StudentsComponent -->
<g id="node5" class="node">
<title>StudentsComponent</title>
<polygon fill="#ffffb3" stroke="black" points="335.56,-84.8 206.44,-84.8 206.44,-48.8 335.56,-48.8 335.56,-84.8"/>
<text text-anchor="middle" x="271" y="-62.6" font-family="Times,serif" font-size="14.00">StudentsComponent</text>
</g>
<!-- StudentsComponent&#45;&gt;StudentsModule -->
<g id="edge5" class="edge">
<title>StudentsComponent&#45;&gt;StudentsModule</title>
<path fill="none" stroke="black" d="M271,-84.91C271,-104.14 271,-131.8 271,-131.8 271,-131.8 916.13,-131.8 916.13,-131.8"/>
<polygon fill="black" stroke="black" points="916.13,-135.3 926.13,-131.8 916.13,-128.3 916.13,-135.3"/>
</g>
<!-- UpdateStudentComponent -->
<g id="node6" class="node">
<title>UpdateStudentComponent</title>
<polygon fill="#ffffb3" stroke="black" points="188.04,-84.8 23.96,-84.8 23.96,-48.8 188.04,-48.8 188.04,-84.8"/>
<text text-anchor="middle" x="106" y="-62.6" font-family="Times,serif" font-size="14.00">UpdateStudentComponent</text>
</g>
<!-- UpdateStudentComponent&#45;&gt;StudentsModule -->
<g id="edge6" class="edge">
<title>UpdateStudentComponent&#45;&gt;StudentsModule</title>
<path fill="none" stroke="black" d="M106,-84.83C106,-105.57 106,-136.8 106,-136.8 106,-136.8 915.99,-136.8 915.99,-136.8"/>
<polygon fill="black" stroke="black" points="915.99,-140.3 925.99,-136.8 915.99,-133.3 915.99,-140.3"/>
</g>
<!-- StudentCourseComponent  -->
<g id="node9" class="node">
<title>StudentCourseComponent </title>
<polygon fill="#fb8072" stroke="black" points="1517.77,-214.8 1350.23,-214.8 1350.23,-178.8 1517.77,-178.8 1517.77,-214.8"/>
<text text-anchor="middle" x="1434" y="-192.6" font-family="Times,serif" font-size="14.00">StudentCourseComponent </text>
</g>
<!-- StudentsModule&#45;&gt;StudentCourseComponent  -->
<g id="edge8" class="edge">
<title>StudentsModule&#45;&gt;StudentCourseComponent </title>
<path fill="none" stroke="black" stroke-dasharray="5,2" d="M1033.86,-140.8C1154.12,-140.8 1434,-140.8 1434,-140.8 1434,-140.8 1434,-168.77 1434,-168.77"/>
<polygon fill="black" stroke="black" points="1430.5,-168.77 1434,-178.77 1437.5,-168.77 1430.5,-168.77"/>
</g>
<!-- StudentGradesComponent  -->
<g id="node10" class="node">
<title>StudentGradesComponent </title>
<polygon fill="#fb8072" stroke="black" points="1332.76,-214.8 1165.24,-214.8 1165.24,-178.8 1332.76,-178.8 1332.76,-214.8"/>
<text text-anchor="middle" x="1249" y="-192.6" font-family="Times,serif" font-size="14.00">StudentGradesComponent </text>
</g>
<!-- StudentsModule&#45;&gt;StudentGradesComponent  -->
<g id="edge9" class="edge">
<title>StudentsModule&#45;&gt;StudentGradesComponent </title>
<path fill="none" stroke="black" stroke-dasharray="5,2" d="M1033.96,-145.8C1092.42,-145.8 1177.46,-145.8 1177.46,-145.8 1177.46,-145.8 1177.46,-168.68 1177.46,-168.68"/>
<polygon fill="black" stroke="black" points="1173.96,-168.68 1177.46,-178.68 1180.96,-168.68 1173.96,-168.68"/>
</g>
<!-- StudentInfoComponent  -->
<g id="node11" class="node">
<title>StudentInfoComponent </title>
<polygon fill="#fb8072" stroke="black" points="1147.43,-214.8 996.57,-214.8 996.57,-178.8 1147.43,-178.8 1147.43,-214.8"/>
<text text-anchor="middle" x="1072" y="-192.6" font-family="Times,serif" font-size="14.00">StudentInfoComponent </text>
</g>
<!-- StudentsModule&#45;&gt;StudentInfoComponent  -->
<g id="edge10" class="edge">
<title>StudentsModule&#45;&gt;StudentInfoComponent </title>
<path fill="none" stroke="black" stroke-dasharray="5,2" d="M1015.21,-149.91C1015.21,-149.91 1015.21,-168.79 1015.21,-168.79"/>
<polygon fill="black" stroke="black" points="1011.71,-168.79 1015.21,-178.79 1018.71,-168.79 1011.71,-168.79"/>
</g>
<!-- StudentPaymentsComponent  -->
<g id="node12" class="node">
<title>StudentPaymentsComponent </title>
<polygon fill="#fb8072" stroke="black" points="979.05,-214.8 796.95,-214.8 796.95,-178.8 979.05,-178.8 979.05,-214.8"/>
<text text-anchor="middle" x="888" y="-192.6" font-family="Times,serif" font-size="14.00">StudentPaymentsComponent </text>
</g>
<!-- StudentsModule&#45;&gt;StudentPaymentsComponent  -->
<g id="edge11" class="edge">
<title>StudentsModule&#45;&gt;StudentPaymentsComponent </title>
<path fill="none" stroke="black" stroke-dasharray="5,2" d="M952.57,-149.91C952.57,-149.91 952.57,-168.79 952.57,-168.79"/>
<polygon fill="black" stroke="black" points="949.07,-168.79 952.57,-178.79 956.07,-168.79 949.07,-168.79"/>
</g>
<!-- StudentsComponent  -->
<g id="node13" class="node">
<title>StudentsComponent </title>
<polygon fill="#fb8072" stroke="black" points="778.56,-214.8 645.44,-214.8 645.44,-178.8 778.56,-178.8 778.56,-214.8"/>
<text text-anchor="middle" x="712" y="-192.6" font-family="Times,serif" font-size="14.00">StudentsComponent </text>
</g>
<!-- StudentsModule&#45;&gt;StudentsComponent  -->
<g id="edge12" class="edge">
<title>StudentsModule&#45;&gt;StudentsComponent </title>
<path fill="none" stroke="black" stroke-dasharray="5,2" d="M926.03,-145.8C857.3,-145.8 747.32,-145.8 747.32,-145.8 747.32,-145.8 747.32,-168.68 747.32,-168.68"/>
<polygon fill="black" stroke="black" points="743.83,-168.68 747.32,-178.68 750.83,-168.68 743.83,-168.68"/>
</g>
<!-- UpdateStudentComponent  -->
<g id="node14" class="node">
<title>UpdateStudentComponent </title>
<polygon fill="#fb8072" stroke="black" points="627.04,-214.8 458.96,-214.8 458.96,-178.8 627.04,-178.8 627.04,-214.8"/>
<text text-anchor="middle" x="543" y="-192.6" font-family="Times,serif" font-size="14.00">UpdateStudentComponent </text>
</g>
<!-- StudentsModule&#45;&gt;UpdateStudentComponent  -->
<g id="edge13" class="edge">
<title>StudentsModule&#45;&gt;UpdateStudentComponent </title>
<path fill="none" stroke="black" stroke-dasharray="5,2" d="M926,-140.8C818.64,-140.8 588.65,-140.8 588.65,-140.8 588.65,-140.8 588.65,-168.77 588.65,-168.77"/>
<polygon fill="black" stroke="black" points="585.15,-168.77 588.65,-178.77 592.15,-168.77 585.15,-168.77"/>
</g>
<!-- SpinnerModule -->
<g id="node8" class="node">
<title>SpinnerModule</title>
<polygon fill="#8dd3c7" stroke="black" points="1189.6,-84.8 1186.6,-88.8 1165.6,-88.8 1162.6,-84.8 1086.4,-84.8 1086.4,-48.8 1189.6,-48.8 1189.6,-84.8"/>
<text text-anchor="middle" x="1138" y="-62.6" font-family="Times,serif" font-size="14.00">SpinnerModule</text>
</g>
<!-- SpinnerModule&#45;&gt;StudentsModule -->
<g id="edge7" class="edge">
<title>SpinnerModule&#45;&gt;StudentsModule</title>
<path fill="none" stroke="black" d="M1116.96,-84.99C1116.96,-99.98 1116.96,-118.8 1116.96,-118.8 1116.96,-118.8 1044.13,-118.8 1044.13,-118.8"/>
<polygon fill="black" stroke="black" points="1044.13,-115.3 1034.13,-118.8 1044.13,-122.3 1044.13,-115.3"/>
</g>
<!-- GradeApiService -->
<g id="node15" class="node">
<title>GradeApiService</title>
<ellipse fill="#fdb462" stroke="black" cx="1996" cy="-66.8" rx="78.14" ry="18"/>
<text text-anchor="middle" x="1996" y="-62.6" font-family="Times,serif" font-size="14.00">GradeApiService</text>
</g>
<!-- GradeApiService&#45;&gt;StudentsModule -->
<g id="edge14" class="edge">
<title>GradeApiService&#45;&gt;StudentsModule</title>
<path fill="none" stroke="black" d="M1996,-84.83C1996,-105.57 1996,-136.8 1996,-136.8 1996,-136.8 1043.91,-136.8 1043.91,-136.8"/>
<polygon fill="black" stroke="black" points="1043.91,-133.3 1033.91,-136.8 1043.91,-140.3 1043.91,-133.3"/>
</g>
<!-- PaymentApiService -->
<g id="node16" class="node">
<title>PaymentApiService</title>
<ellipse fill="#fdb462" stroke="black" cx="1812" cy="-66.8" rx="88.05" ry="18"/>
<text text-anchor="middle" x="1812" y="-62.6" font-family="Times,serif" font-size="14.00">PaymentApiService</text>
</g>
<!-- PaymentApiService&#45;&gt;StudentsModule -->
<g id="edge15" class="edge">
<title>PaymentApiService&#45;&gt;StudentsModule</title>
<path fill="none" stroke="black" d="M1812,-84.91C1812,-104.14 1812,-131.8 1812,-131.8 1812,-131.8 1043.95,-131.8 1043.95,-131.8"/>
<polygon fill="black" stroke="black" points="1043.95,-128.3 1033.95,-131.8 1043.95,-135.3 1043.95,-128.3"/>
</g>
<!-- StudentApiService -->
<g id="node17" class="node">
<title>StudentApiService</title>
<ellipse fill="#fdb462" stroke="black" cx="1622" cy="-66.8" rx="83.97" ry="18"/>
<text text-anchor="middle" x="1622" y="-62.6" font-family="Times,serif" font-size="14.00">StudentApiService</text>
</g>
<!-- StudentApiService&#45;&gt;StudentsModule -->
<g id="edge16" class="edge">
<title>StudentApiService&#45;&gt;StudentsModule</title>
<path fill="none" stroke="black" d="M1622,-85.1C1622,-103.07 1622,-127.8 1622,-127.8 1622,-127.8 1043.91,-127.8 1043.91,-127.8"/>
<polygon fill="black" stroke="black" points="1043.91,-124.3 1033.91,-127.8 1043.91,-131.3 1043.91,-124.3"/>
</g>
<!-- StudentClassroomCourseApiService -->
<g id="node18" class="node">
<title>StudentClassroomCourseApiService</title>
<ellipse fill="#fdb462" stroke="black" cx="1367" cy="-66.8" rx="152.81" ry="18"/>
<text text-anchor="middle" x="1367" y="-62.6" font-family="Times,serif" font-size="14.00">StudentClassroomCourseApiService</text>
</g>
<!-- StudentClassroomCourseApiService&#45;&gt;StudentsModule -->
<g id="edge17" class="edge">
<title>StudentClassroomCourseApiService&#45;&gt;StudentsModule</title>
<path fill="none" stroke="black" d="M1273.49,-81.22C1273.49,-97.81 1273.49,-122.8 1273.49,-122.8 1273.49,-122.8 1043.83,-122.8 1043.83,-122.8"/>
<polygon fill="black" stroke="black" points="1043.83,-119.3 1033.83,-122.8 1043.83,-126.3 1043.83,-119.3"/>
</g>
</g>
</svg>
