<?xml version="1.0" encoding="UTF-8" standalone="no"?>
<!DOCTYPE svg PUBLIC "-//W3C//DTD SVG 1.1//EN"
 "http://www.w3.org/Graphics/SVG/1.1/DTD/svg11.dtd">
<!-- Generated by graphviz version 5.0.0 (20220707.1540)
 -->
<!-- Title: dependencies Pages: 1 -->
<svg width="599pt" height="174pt"
 viewBox="0.00 0.00 599.00 173.80" xmlns="http://www.w3.org/2000/svg" xmlns:xlink="http://www.w3.org/1999/xlink">
<g id="graph0" class="graph" transform="scale(1 1) rotate(0) translate(4 169.8)">
<title>dependencies</title>
<polygon fill="white" stroke="transparent" points="-4,4 -4,-169.8 595,-169.8 595,4 -4,4"/>
<text text-anchor="middle" x="295.5" y="-8.2" font-family="sans-serif" font-size="14.00">dependencies</text>
<g id="clust1" class="cluster">
<title>cluster_UsersModule</title>
<polygon fill="none" stroke="black" stroke-dasharray="1,5" points="8,-32.8 8,-157.8 583,-157.8 583,-32.8 8,-32.8"/>
</g>
<g id="clust2" class="cluster">
<title>cluster_UsersModule_declarations</title>
<polygon fill="none" stroke="black" points="445,-40.8 445,-92.8 575,-92.8 575,-40.8 445,-40.8"/>
</g>
<g id="clust4" class="cluster">
<title>cluster_UsersModule_imports</title>
<polygon fill="none" stroke="black" points="317,-40.8 317,-92.8 437,-92.8 437,-40.8 317,-40.8"/>
</g>
<g id="clust7" class="cluster">
<title>cluster_UsersModule_providers</title>
<polygon fill="none" stroke="black" points="16,-40.8 16,-92.8 309,-92.8 309,-40.8 16,-40.8"/>
</g>
<!-- UsersComponent -->
<g id="node1" class="node">
<title>UsersComponent</title>
<polygon fill="#ffffb3" stroke="black" points="566.71,-84.8 453.29,-84.8 453.29,-48.8 566.71,-48.8 566.71,-84.8"/>
<text text-anchor="middle" x="510" y="-62.6" font-family="Times,serif" font-size="14.00">UsersComponent</text>
</g>
<!-- UsersModule -->
<g id="node2" class="node">
<title>UsersModule</title>
<polygon fill="#8dd3c7" stroke="black" points="355.94,-149.8 352.94,-153.8 331.94,-153.8 328.94,-149.8 264.06,-149.8 264.06,-113.8 355.94,-113.8 355.94,-149.8"/>
<text text-anchor="middle" x="310" y="-127.6" font-family="Times,serif" font-size="14.00">UsersModule</text>
</g>
<!-- UsersComponent&#45;&gt;UsersModule -->
<g id="edge1" class="edge">
<title>UsersComponent&#45;&gt;UsersModule</title>
<path fill="none" stroke="black" d="M510,-84.91C510,-104.14 510,-131.8 510,-131.8 510,-131.8 365.88,-131.8 365.88,-131.8"/>
<polygon fill="black" stroke="black" points="365.88,-128.3 355.88,-131.8 365.88,-135.3 365.88,-128.3"/>
</g>
<!-- SpinnerModule -->
<g id="node3" class="node">
<title>SpinnerModule</title>
<polygon fill="#8dd3c7" stroke="black" points="428.6,-84.8 425.6,-88.8 404.6,-88.8 401.6,-84.8 325.4,-84.8 325.4,-48.8 428.6,-48.8 428.6,-84.8"/>
<text text-anchor="middle" x="377" y="-62.6" font-family="Times,serif" font-size="14.00">SpinnerModule</text>
</g>
<!-- SpinnerModule&#45;&gt;UsersModule -->
<g id="edge2" class="edge">
<title>SpinnerModule&#45;&gt;UsersModule</title>
<path fill="none" stroke="black" d="M340.58,-84.91C340.58,-84.91 340.58,-103.79 340.58,-103.79"/>
<polygon fill="black" stroke="black" points="337.08,-103.79 340.58,-113.79 344.08,-103.79 337.08,-103.79"/>
</g>
<!-- AppService -->
<g id="node4" class="node">
<title>AppService</title>
<ellipse fill="#fdb462" stroke="black" cx="244" cy="-66.8" rx="56.75" ry="18"/>
<text text-anchor="middle" x="244" y="-62.6" font-family="Times,serif" font-size="14.00">AppService</text>
</g>
<!-- AppService&#45;&gt;UsersModule -->
<g id="edge3" class="edge">
<title>AppService&#45;&gt;UsersModule</title>
<path fill="none" stroke="black" d="M282.45,-80.27C282.45,-80.27 282.45,-103.66 282.45,-103.66"/>
<polygon fill="black" stroke="black" points="278.95,-103.66 282.45,-113.66 285.95,-103.66 278.95,-103.66"/>
</g>
<!-- UserApiService -->
<g id="node5" class="node">
<title>UserApiService</title>
<ellipse fill="#fdb462" stroke="black" cx="97" cy="-66.8" rx="72.93" ry="18"/>
<text text-anchor="middle" x="97" y="-62.6" font-family="Times,serif" font-size="14.00">UserApiService</text>
</g>
<!-- UserApiService&#45;&gt;UsersModule -->
<g id="edge4" class="edge">
<title>UserApiService&#45;&gt;UsersModule</title>
<path fill="none" stroke="black" d="M97,-84.91C97,-104.14 97,-131.8 97,-131.8 97,-131.8 254.04,-131.8 254.04,-131.8"/>
<polygon fill="black" stroke="black" points="254.04,-135.3 264.04,-131.8 254.04,-128.3 254.04,-135.3"/>
</g>
</g>
</svg>
