<?xml version="1.0" encoding="UTF-8" standalone="no"?>
<!DOCTYPE svg PUBLIC "-//W3C//DTD SVG 1.1//EN"
 "http://www.w3.org/Graphics/SVG/1.1/DTD/svg11.dtd">
<!-- Generated by graphviz version 5.0.0 (20220707.1540)
 -->
<!-- Title: dependencies Pages: 1 -->
<svg width="678pt" height="247pt"
 viewBox="0.00 0.00 678.00 246.80" xmlns="http://www.w3.org/2000/svg" xmlns:xlink="http://www.w3.org/1999/xlink">
<g id="graph0" class="graph" transform="scale(1 1) rotate(0) translate(4 242.8)">
<title>dependencies</title>
<polygon fill="white" stroke="transparent" points="-4,4 -4,-242.8 674,-242.8 674,4 -4,4"/>
<text text-anchor="middle" x="335" y="-8.2" font-family="sans-serif" font-size="14.00">dependencies</text>
<g id="clust1" class="cluster">
<title>cluster_CoursesModule</title>
<polygon fill="none" stroke="black" stroke-dasharray="1,5" points="8,-32.8 8,-230.8 662,-230.8 662,-32.8 8,-32.8"/>
</g>
<g id="clust5" class="cluster">
<title>cluster_CoursesModule_imports</title>
<polygon fill="none" stroke="black" points="534,-40.8 534,-92.8 654,-92.8 654,-40.8 534,-40.8"/>
</g>
<g id="clust6" class="cluster">
<title>cluster_CoursesModule_exports</title>
<polygon fill="none" stroke="black" points="182,-170.8 182,-222.8 510,-222.8 510,-170.8 182,-170.8"/>
</g>
<g id="clust2" class="cluster">
<title>cluster_CoursesModule_declarations</title>
<polygon fill="none" stroke="black" points="204,-40.8 204,-92.8 526,-92.8 526,-40.8 204,-40.8"/>
</g>
<g id="clust8" class="cluster">
<title>cluster_CoursesModule_providers</title>
<polygon fill="none" stroke="black" points="16,-40.8 16,-92.8 196,-92.8 196,-40.8 16,-40.8"/>
</g>
<!-- CoursesComponent -->
<g id="node1" class="node">
<title>CoursesComponent</title>
<polygon fill="#ffffb3" stroke="black" points="518.44,-84.8 391.56,-84.8 391.56,-48.8 518.44,-48.8 518.44,-84.8"/>
<text text-anchor="middle" x="455" y="-62.6" font-family="Times,serif" font-size="14.00">CoursesComponent</text>
</g>
<!-- CoursesModule -->
<g id="node3" class="node">
<title>CoursesModule</title>
<polygon fill="#8dd3c7" stroke="black" points="406.16,-149.8 403.16,-153.8 382.16,-153.8 379.16,-149.8 301.84,-149.8 301.84,-113.8 406.16,-113.8 406.16,-149.8"/>
<text text-anchor="middle" x="354" y="-127.6" font-family="Times,serif" font-size="14.00">CoursesModule</text>
</g>
<!-- CoursesComponent&#45;&gt;CoursesModule -->
<g id="edge1" class="edge">
<title>CoursesComponent&#45;&gt;CoursesModule</title>
<path fill="none" stroke="black" d="M399.06,-84.91C399.06,-84.91 399.06,-103.79 399.06,-103.79"/>
<polygon fill="black" stroke="black" points="395.56,-103.79 399.06,-113.79 402.56,-103.79 395.56,-103.79"/>
</g>
<!-- UpdateCourseComponent -->
<g id="node2" class="node">
<title>UpdateCourseComponent</title>
<polygon fill="#ffffb3" stroke="black" points="373.92,-84.8 212.08,-84.8 212.08,-48.8 373.92,-48.8 373.92,-84.8"/>
<text text-anchor="middle" x="293" y="-62.6" font-family="Times,serif" font-size="14.00">UpdateCourseComponent</text>
</g>
<!-- UpdateCourseComponent&#45;&gt;CoursesModule -->
<g id="edge2" class="edge">
<title>UpdateCourseComponent&#45;&gt;CoursesModule</title>
<path fill="none" stroke="black" d="M337.69,-84.91C337.69,-84.91 337.69,-103.79 337.69,-103.79"/>
<polygon fill="black" stroke="black" points="334.19,-103.79 337.69,-113.79 341.19,-103.79 334.19,-103.79"/>
</g>
<!-- CoursesComponent  -->
<g id="node5" class="node">
<title>CoursesComponent </title>
<polygon fill="#fb8072" stroke="black" points="501.94,-214.8 372.06,-214.8 372.06,-178.8 501.94,-178.8 501.94,-214.8"/>
<text text-anchor="middle" x="437" y="-192.6" font-family="Times,serif" font-size="14.00">CoursesComponent </text>
</g>
<!-- CoursesModule&#45;&gt;CoursesComponent  -->
<g id="edge4" class="edge">
<title>CoursesModule&#45;&gt;CoursesComponent </title>
<path fill="none" stroke="black" stroke-dasharray="5,2" d="M389.18,-149.91C389.18,-149.91 389.18,-168.79 389.18,-168.79"/>
<polygon fill="black" stroke="black" points="385.68,-168.79 389.18,-178.79 392.68,-168.79 385.68,-168.79"/>
</g>
<!-- UpdateCourseComponent  -->
<g id="node6" class="node">
<title>UpdateCourseComponent </title>
<polygon fill="#fb8072" stroke="black" points="354.42,-214.8 189.58,-214.8 189.58,-178.8 354.42,-178.8 354.42,-214.8"/>
<text text-anchor="middle" x="272" y="-192.6" font-family="Times,serif" font-size="14.00">UpdateCourseComponent </text>
</g>
<!-- CoursesModule&#45;&gt;UpdateCourseComponent  -->
<g id="edge5" class="edge">
<title>CoursesModule&#45;&gt;UpdateCourseComponent </title>
<path fill="none" stroke="black" stroke-dasharray="5,2" d="M328.06,-149.91C328.06,-149.91 328.06,-168.79 328.06,-168.79"/>
<polygon fill="black" stroke="black" points="324.56,-168.79 328.06,-178.79 331.56,-168.79 324.56,-168.79"/>
</g>
<!-- SpinnerModule -->
<g id="node4" class="node">
<title>SpinnerModule</title>
<polygon fill="#8dd3c7" stroke="black" points="645.6,-84.8 642.6,-88.8 621.6,-88.8 618.6,-84.8 542.4,-84.8 542.4,-48.8 645.6,-48.8 645.6,-84.8"/>
<text text-anchor="middle" x="594" y="-62.6" font-family="Times,serif" font-size="14.00">SpinnerModule</text>
</g>
<!-- SpinnerModule&#45;&gt;CoursesModule -->
<g id="edge3" class="edge">
<title>SpinnerModule&#45;&gt;CoursesModule</title>
<path fill="none" stroke="black" d="M594,-84.91C594,-104.14 594,-131.8 594,-131.8 594,-131.8 416.37,-131.8 416.37,-131.8"/>
<polygon fill="black" stroke="black" points="416.37,-128.3 406.37,-131.8 416.37,-135.3 416.37,-128.3"/>
</g>
<!-- CourseApiService -->
<g id="node7" class="node">
<title>CourseApiService</title>
<ellipse fill="#fdb462" stroke="black" cx="106" cy="-66.8" rx="81.67" ry="18"/>
<text text-anchor="middle" x="106" y="-62.6" font-family="Times,serif" font-size="14.00">CourseApiService</text>
</g>
<!-- CourseApiService&#45;&gt;CoursesModule -->
<g id="edge6" class="edge">
<title>CourseApiService&#45;&gt;CoursesModule</title>
<path fill="none" stroke="black" d="M106,-84.91C106,-104.14 106,-131.8 106,-131.8 106,-131.8 291.71,-131.8 291.71,-131.8"/>
<polygon fill="black" stroke="black" points="291.71,-135.3 301.71,-131.8 291.71,-128.3 291.71,-135.3"/>
</g>
</g>
</svg>
